<svg width="80" height="80" viewBox="0 0 80 80" fill="none" xmlns="http://www.w3.org/2000/svg">
<circle cx="40" cy="40" r="39.25" fill="white" stroke="#12B232" stroke-width="1.5"/>
<path d="M52.0827 48.7503V36.2503C52.0827 34.4094 50.5903 32.917 48.7493 32.917H48.1938C47.521 32.917 46.9142 32.5124 46.6553 31.8914L45.4267 28.9426C45.1678 28.3216 44.561 27.917 43.8882 27.917H36.1105C35.4376 27.917 34.8308 28.3216 34.572 28.9426L33.3434 31.8914C33.0846 32.5124 32.4777 32.917 31.8049 32.917H31.2493C29.4084 32.917 27.916 34.4094 27.916 36.2503V48.7503C27.916 50.5913 29.4084 52.0837 31.2493 52.0837H48.7493C50.5903 52.0837 52.0827 50.5913 52.0827 48.7503Z" stroke="#12B232" stroke-width="1.5" stroke-linecap="round"/>
<path d="M45.4173 41.6667C45.4173 44.6582 42.9922 47.0833 40.0007 47.0833C37.0092 47.0833 34.584 44.6582 34.584 41.6667C34.584 38.6752 37.0092 36.25 40.0007 36.25C42.9922 36.25 45.4173 38.6752 45.4173 41.6667Z" stroke="#12B232" stroke-width="1.5" stroke-linecap="round"/>
</svg>
