<svg width="40" height="40" viewBox="0 0 40 40" fill="none" xmlns="http://www.w3.org/2000/svg">
<path d="M32.0827 28.7503V16.2503C32.0827 14.4094 30.5903 12.917 28.7493 12.917H28.1938C27.521 12.917 26.9142 12.5124 26.6553 11.8914L25.4267 8.94263C25.1678 8.32156 24.561 7.91699 23.8882 7.91699H16.1105C15.4376 7.91699 14.8308 8.32156 14.572 8.94263L13.3434 11.8914C13.0846 12.5124 12.4777 12.917 11.8049 12.917H11.2493C9.4084 12.917 7.91602 14.4094 7.91602 16.2503V28.7503C7.91602 30.5913 9.4084 32.0837 11.2493 32.0837H28.7493C30.5903 32.0837 32.0827 30.5913 32.0827 28.7503Z" stroke="#12B232" stroke-width="1.5" stroke-linecap="round"/>
<path d="M25.4173 21.6667C25.4173 24.6582 22.9922 27.0833 20.0007 27.0833C17.0092 27.0833 14.584 24.6582 14.584 21.6667C14.584 18.6752 17.0092 16.25 20.0007 16.25C22.9922 16.25 25.4173 18.6752 25.4173 21.6667Z" stroke="#12B232" stroke-width="1.5" stroke-linecap="round"/>
</svg>
