<svg width="40" height="40" viewBox="0 0 40 40" fill="none" xmlns="http://www.w3.org/2000/svg">
<path d="M30.416 26.2496C28.7247 27.1504 27.0493 27.0831 24.9993 27.0831C18.3258 27.0831 12.916 21.6733 12.916 14.9998C12.916 12.9498 12.8485 11.2743 13.7493 9.58301C9.93477 11.6146 7.91602 15.3763 7.91602 19.9998C7.91602 26.6731 13.3259 32.0831 19.9993 32.0831C24.6228 32.0831 28.3843 30.0643 30.416 26.2496Z" stroke="#12B232" stroke-width="1.5" stroke-linecap="round" stroke-linejoin="round"/>
<path d="M26.6667 7.91699C26.6667 11.5989 24.9318 15.0003 21.25 15.0003C24.9318 15.0003 26.6667 18.4018 26.6667 22.0837C26.6667 18.4018 28.4015 15.0003 32.0833 15.0003C28.4015 15.0003 26.6667 11.5989 26.6667 7.91699Z" stroke="#12B232" stroke-width="1.5" stroke-linecap="round" stroke-linejoin="round"/>
</svg>
