<svg width="40" height="40" viewBox="0 0 40 40" fill="none" xmlns="http://www.w3.org/2000/svg">
<path d="M19.9993 32.0837C26.6728 32.0837 32.0827 26.6738 32.0827 20.0003C32.0827 13.3269 26.6728 7.91699 19.9993 7.91699C13.3259 7.91699 7.91602 13.3269 7.91602 20.0003C7.91602 26.6738 13.3259 32.0837 19.9993 32.0837Z" stroke="#12B232" stroke-width="1.5" stroke-linecap="round" stroke-linejoin="round"/>
<path d="M20.0007 25.4163C22.9922 25.4163 25.4173 22.9912 25.4173 19.9997C25.4173 17.0081 22.9922 14.583 20.0007 14.583C17.0091 14.583 14.584 17.0081 14.584 19.9997C14.584 22.9912 17.0091 25.4163 20.0007 25.4163Z" stroke="#12B232" stroke-width="1.5" stroke-linecap="round" stroke-linejoin="round"/>
<path d="M11.666 28.3337L15.8327 24.167" stroke="#12B232" stroke-width="1.5" stroke-linecap="round" stroke-linejoin="round"/>
<path d="M28.3327 28.3337L24.166 24.167" stroke="#12B232" stroke-width="1.5" stroke-linecap="round" stroke-linejoin="round"/>
<path d="M15.8327 15.8337L11.666 11.667" stroke="#12B232" stroke-width="1.5" stroke-linecap="round" stroke-linejoin="round"/>
<path d="M24.166 15.8337L28.3327 11.667" stroke="#12B232" stroke-width="1.5" stroke-linecap="round" stroke-linejoin="round"/>
</svg>
