<svg width="34" height="34" viewBox="0 0 34 34" fill="none" xmlns="http://www.w3.org/2000/svg">
<path d="M27.2702 14.167C27.2702 18.0329 25.2868 21.6045 23.3743 21.6045C21.4618 21.6045 19.4785 18.0329 19.4785 14.167C19.4785 10.301 21.4618 6.72949 23.3743 6.72949C25.2868 6.72949 27.2702 10.301 27.2702 14.167Z" stroke="#495057" stroke-width="1.5"/>
<path d="M23.3743 21.6045C23.3743 21.6045 11.3327 19.1253 9.91602 18.7712C8.49935 18.417 6.72852 16.5602 6.72852 14.167C6.72852 11.7738 8.49935 9.91699 9.91602 9.56283C11.3327 9.20866 23.3743 6.72949 23.3743 6.72949" stroke="#495057" stroke-width="1.5"/>
<path d="M9.5625 19.125V24.4375C9.5625 26.0023 10.831 27.2708 12.3958 27.2708H13.1042C14.669 27.2708 15.9375 26.0023 15.9375 24.4375V20.5417" stroke="#495057" stroke-width="1.5"/>
</svg>
