<svg width="30" height="30" viewBox="0 0 30 30" fill="none" xmlns="http://www.w3.org/2000/svg">
<path d="M8.75 20.3358C6.70261 18.3366 5.9375 15.7393 5.9375 15C5.9375 13.75 8.125 7.1875 15 7.1875C17.2434 7.1875 18.9876 7.88628 20.3198 8.87123M23.2809 12.5C23.8308 13.6232 24.0625 14.5931 24.0625 15C24.0625 16.25 21.875 22.8125 15 22.8125C14.0857 22.8125 13.2544 22.6965 12.5 22.4922L23.2809 12.5Z" stroke="#868E96" stroke-width="1.5" stroke-linecap="round" stroke-linejoin="round"/>
<path d="M24.0625 5.9375L5.9375 24.0625" stroke="#868E96" stroke-width="1.5" stroke-linecap="round" stroke-linejoin="round"/>
<path d="M13.0113 16.9888C11.9129 15.8904 11.9129 14.1097 13.0113 13.0113C14.1096 11.9129 15.8904 11.9129 16.9888 13.0113" stroke="#868E96" stroke-width="1.5" stroke-linecap="round" stroke-linejoin="round"/>
</svg>
