<svg width="340" height="256" viewBox="0 0 340 256" fill="none" xmlns="http://www.w3.org/2000/svg">
<g clip-path="url(#clip0_966_542)">
<path opacity="0.18" d="M282.465 91.8858C284.098 98.3454 284.296 105.084 283.045 111.628C281.794 118.172 279.124 124.364 275.224 129.768C269.4 137.687 261.098 143.608 255.928 151.947C244.752 169.951 250.751 194.535 240.501 213.082C231.933 228.597 214.183 236.218 197.702 242.76C184.76 247.893 171.689 253.058 157.97 255.127C144.252 257.196 129.498 255.883 117.611 248.753C107.807 242.89 100.605 233.594 93.9531 224.311C77.601 201.472 62.8214 176.603 57.7999 148.974C52.7785 121.344 59.0423 90.3537 79.6329 71.2382C89.6564 61.9294 102.786 55.5101 109.859 43.803C117.281 31.5204 117.384 14.3831 128.922 5.82412C133.18 2.66299 138.473 1.19555 143.728 0.497386C156.378 -1.12928 169.217 1.33805 180.36 7.53721C191.665 13.8659 200.944 23.9247 213.258 27.9714C229.196 33.2141 249.651 29.1868 260.244 44.7015C268.753 57.178 278.686 77.3536 282.465 91.8858Z" fill="#51CF66"/>
<path d="M214.65 83.0557C214.465 83.4456 214.213 83.8 213.905 84.1029C211.439 86.7054 208.247 88.5073 204.743 89.2745C203.505 89.5592 202.24 89.7024 200.97 89.7011C200.226 84.9045 199.469 80.1014 198.886 75.2853C198.427 71.523 198.084 67.7671 197.922 63.9919C197.812 61.6259 192.681 53.3772 193.729 51.1664C194.887 48.7357 203.228 57.0555 204.167 58.6393C209.376 67.3663 211.246 74.1153 214.818 81.6205C214.953 82.1024 214.893 82.6181 214.65 83.0557Z" fill="#51CF66"/>
<path d="M205.584 88.3956C205.334 88.7203 205.052 89.0192 204.743 89.2877C203.506 89.5724 202.24 89.7156 200.97 89.7144C200.226 84.9177 199.469 80.1146 198.887 75.2986C199.107 71.5147 199.506 67.7459 200.084 63.9922C199.838 65.5631 201.773 68.9892 202.297 70.5278L204.568 77.2314C205.752 80.7287 208.283 84.9824 205.584 88.3956Z" fill="url(#paint0_linear_966_542)"/>
<path d="M202.795 96.5987C203.313 99.7534 203.973 102.947 205.532 105.739C206.335 107.175 207.532 108.584 209.156 108.836C210.059 108.921 210.97 108.786 211.809 108.442C213.548 107.844 215.189 106.99 216.675 105.908C218.096 104.819 219.434 103.629 220.681 102.346C222.535 100.597 224.25 98.7085 225.812 96.6957C226.53 95.726 227.184 94.7046 227.967 93.7802C231.202 89.9338 236.379 88.2078 240.048 84.7751C241.038 83.8572 243.044 79.6553 242.895 78.3107C241.549 77.5349 238.786 80.6573 237.298 81.1098C235.81 81.5623 234.418 82.2993 232.924 82.7194C231.134 83.218 229.245 83.2425 227.443 82.7906C226.835 82.6354 226.11 73.0486 225.502 73.2684C225.195 73.3966 224.921 73.5908 224.699 73.8372C223.444 75.1301 222.758 86.165 221.716 87.6001C220.286 89.5395 218.306 91.0134 216.345 92.4226C216.17 92.5455 215.95 92.6747 215.756 92.5778C215.692 92.5302 215.639 92.4702 215.599 92.4013C215.559 92.3324 215.533 92.2561 215.523 92.177C215.012 90.2829 214.436 88.4017 213.809 86.5464C213.368 85.2535 212.747 83.8313 211.447 83.4435C210.288 83.1008 209.085 83.7538 208.049 84.3808C206.716 85.1953 205.37 85.9969 204.044 86.8179C203.306 87.2704 202.413 87.71 202.064 88.5439C201.637 89.5459 201.999 90.9293 202.122 91.9572C202.316 93.5151 202.543 95.0601 202.795 96.5987Z" fill="#F5BCBA"/>
<path d="M214.604 184.522C214.604 186.5 214.507 188.446 214.332 190.379C212.823 206.92 205.011 222.25 192.51 233.202C180.01 244.153 163.776 249.89 147.163 249.226C130.55 248.562 114.827 241.549 103.242 229.635C91.6572 217.721 85.0958 201.816 84.9134 185.208C84.9134 184.988 84.9134 184.774 84.9134 184.561C84.8278 175.999 86.4419 167.505 89.6625 159.57C92.883 151.635 97.6461 144.417 103.676 138.332C109.707 132.247 116.884 127.417 124.795 124.121C132.705 120.824 141.191 119.127 149.762 119.127C158.333 119.127 166.819 120.824 174.729 124.121C182.64 127.417 189.817 132.247 195.848 138.332C201.878 144.417 206.641 151.635 209.862 159.57C213.082 167.505 214.696 175.999 214.611 184.561L214.604 184.522Z" fill="#51CF66"/>
<path d="M214.604 184.522C214.604 186.501 214.507 188.446 214.332 190.379C199.41 200.522 177.448 206.922 152.955 206.922C124.483 206.922 99.4666 198.279 84.9134 185.175C84.9134 184.956 84.9134 184.742 84.9134 184.529C84.8278 175.967 86.4419 167.473 89.6625 159.538C92.883 151.603 97.6461 144.384 103.676 138.3C109.707 132.215 116.884 127.385 124.795 124.088C132.705 120.792 141.191 119.095 149.762 119.095C158.333 119.095 166.819 120.792 174.729 124.088C182.64 127.385 189.817 132.215 195.848 138.3C201.878 144.384 206.641 151.603 209.862 159.538C213.082 167.473 214.696 175.967 214.611 184.529L214.604 184.522Z" fill="url(#paint1_linear_966_542)"/>
<path d="M179.493 159.195C182.081 160.126 184.896 160.791 187.019 162.556C188.902 164.114 190.047 166.37 190.973 168.626C194.058 176.198 195.171 184.427 194.208 192.545C193.949 194.704 193.561 196.928 194.124 199.01C194.687 201.091 196.609 203.043 198.77 202.785C201.766 196.837 201.831 189.895 201.837 183.236C201.837 178.375 201.837 173.41 200.207 168.827C198.874 165.052 196.518 161.716 194.085 158.542C185.213 146.906 174.478 136.052 160.811 130.822C160.245 130.533 159.594 130.452 158.974 130.596C156.159 131.624 156.618 136.627 157.712 138.638C159.265 141.415 160.994 144.09 162.889 146.647C167.045 152.392 172.828 156.762 179.493 159.195Z" fill="url(#paint2_linear_966_542)"/>
<path d="M153.9 144.585C153.938 143.715 154.051 142.85 154.236 141.999C154.336 141.577 154.549 141.19 154.854 140.881C155.159 140.572 155.543 140.353 155.964 140.247C156.319 140.238 156.674 140.205 157.025 140.15C157.743 139.931 158.047 139.097 158.254 138.379L160.552 130.363C160.992 128.812 161.438 127.183 161.102 125.612C160.571 123.155 158.313 121.494 156.113 120.292C154.514 119.412 152.715 118.63 150.936 118.96C148.179 119.471 146.581 122.315 145.552 124.92C144.355 127.711 143.618 130.678 143.371 133.705C143.19 137.203 142.892 145.768 145.06 148.826C148.063 153.118 153.421 148.464 153.9 144.585Z" fill="url(#paint3_linear_966_542)"/>
<path d="M188.804 134.467C194.674 136.452 200.931 137.286 206.587 139.813C206.769 139.869 206.938 139.961 207.082 140.084C207.227 140.208 207.345 140.36 207.428 140.531C207.477 140.811 207.441 141.099 207.324 141.358C202.548 155.549 199.854 170.355 199.326 185.317C202.71 185.925 206.169 186.002 209.576 185.543C209.959 185.519 210.33 185.402 210.657 185.201C210.971 184.926 211.207 184.574 211.343 184.179C216.817 171.901 221.731 159.392 226.084 146.653C226.854 144.397 227.617 142.037 227.307 139.671C226.86 136.226 224.265 133.511 221.8 131.061L202.587 111.913C202.099 111.362 201.499 110.922 200.827 110.62C200.055 110.39 199.238 110.35 198.446 110.504C190.869 111.441 180.522 111.732 166.596 111.15C164.791 111.072 173.714 121.344 174.458 123.316C175.054 124.881 176.937 126.897 178.088 128.113C180.975 131.138 184.87 133.136 188.804 134.467Z" fill="#525263"/>
<path d="M188.804 134.467C194.674 136.452 200.931 137.286 206.587 139.813C206.769 139.869 206.938 139.961 207.082 140.084C207.227 140.208 207.345 140.36 207.428 140.531C207.477 140.811 207.441 141.099 207.324 141.358C202.548 155.549 199.854 170.355 199.326 185.317C202.71 185.925 206.169 186.002 209.576 185.543C209.959 185.519 210.33 185.402 210.657 185.201C210.971 184.926 211.207 184.574 211.343 184.179C216.817 171.901 221.731 159.392 226.084 146.653C226.854 144.397 227.617 142.037 227.307 139.671C226.86 136.226 224.265 133.511 221.8 131.061L202.587 111.913C202.099 111.362 201.499 110.922 200.827 110.62C200.055 110.39 199.238 110.35 198.446 110.504C190.869 111.441 180.522 111.732 166.596 111.15C164.791 111.072 173.714 121.344 174.458 123.316C175.054 124.881 176.937 126.897 178.088 128.113C180.975 131.138 184.87 133.136 188.804 134.467Z" fill="url(#paint4_linear_966_542)"/>
<path d="M198.342 193.806C197.871 194.538 197.552 195.358 197.404 196.217C197.059 197.719 196.804 199.241 196.64 200.774C196.511 201.964 196.465 203.257 197.145 204.233C197.824 205.209 198.944 205.564 199.992 205.972C202.631 207.057 205.195 208.316 207.667 209.741C209.336 210.659 211.077 211.609 212.979 211.68C214.882 211.751 216.985 210.71 217.418 208.861C217.569 207.971 217.493 207.058 217.198 206.204C216.16 202.495 214.123 199.141 211.31 196.508C210.817 196.027 210.267 195.608 209.673 195.26C209.102 194.966 208.507 194.724 207.893 194.536C206.165 193.904 204.394 193.397 202.593 193.017C201.021 192.765 199.429 192.299 198.342 193.806Z" fill="#2E2E3F"/>
<path d="M198.342 193.806C197.871 194.538 197.552 195.358 197.404 196.217C197.059 197.719 196.804 199.241 196.64 200.774C196.511 201.964 196.465 203.257 197.145 204.233C197.824 205.209 198.944 205.564 199.992 205.972C202.631 207.057 205.195 208.316 207.667 209.741C209.336 210.659 211.077 211.609 212.979 211.68C214.882 211.751 216.985 210.71 217.418 208.861C217.569 207.971 217.493 207.058 217.198 206.204C216.16 202.495 214.123 199.141 211.31 196.508C210.817 196.027 210.267 195.608 209.673 195.26C209.102 194.966 208.507 194.724 207.893 194.536C206.165 193.904 204.394 193.397 202.593 193.017C201.021 192.765 199.429 192.299 198.342 193.806Z" fill="url(#paint5_linear_966_542)"/>
<path d="M200.266 185.802C199.775 188.359 199.519 190.955 199.502 193.559C199.502 194.703 199.58 195.97 200.401 196.791C201.179 197.409 202.171 197.693 203.158 197.58C204.348 197.536 205.523 197.294 206.633 196.862C206.879 196.786 207.102 196.648 207.28 196.462C207.411 196.278 207.502 196.069 207.545 195.848C208.533 192.147 209.057 188.338 209.105 184.509C209.168 183.908 209.043 183.303 208.749 182.776C208.134 181.917 206.859 181.955 205.824 182.162C204.499 182.446 203.2 182.841 201.941 183.345C200.751 183.759 200.505 184.573 200.266 185.802Z" fill="#F5BCBA"/>
<path d="M213.025 197.955C213.492 199.104 213.873 200.286 214.164 201.492C214.364 202.429 214.481 203.431 215.082 204.181C215.846 205.118 217.173 205.357 218.383 205.377C219.38 205.433 220.377 205.265 221.301 204.885C221.782 204.697 222.184 204.35 222.44 203.903C222.62 203.461 222.682 202.98 222.621 202.506C222.527 199.222 221.707 195.999 220.22 193.068C219.368 191.553 218.408 190.102 217.347 188.724C217.012 188.105 216.448 187.641 215.775 187.431C215.429 187.419 215.084 187.476 214.761 187.599C214.437 187.723 214.142 187.91 213.892 188.149C212.824 188.95 210.475 190.289 210.721 191.808C211.032 193.831 212.3 196.036 213.025 197.955Z" fill="#F5BCBA"/>
<path d="M220.868 200.341C220.136 200.75 219.425 201.197 218.739 201.679C217.671 202.268 216.416 202.384 215.245 202.72C214.935 202.779 214.651 202.93 214.429 203.153C214.268 203.371 214.167 203.627 214.138 203.897C213.918 205.661 213.99 207.45 214.352 209.191C214.947 212.958 215.641 216.709 216.435 220.446C216.765 221.984 217.16 223.607 218.279 224.712C219.399 225.818 221.101 226.199 222.693 226.244C224.182 226.33 225.67 226.053 227.028 225.436C228.109 224.859 229.044 224.045 229.766 223.055C230.488 222.066 230.976 220.926 231.195 219.722C231.617 217.3 231.32 214.808 230.341 212.553C229.677 211.01 228.903 209.518 228.025 208.086C226.86 206.086 225.699 204.086 224.543 202.087C223.663 200.561 222.861 199.494 220.868 200.341Z" fill="#2E2E3F"/>
<path d="M220.868 200.341C220.136 200.75 219.425 201.197 218.739 201.679C217.671 202.268 216.416 202.384 215.245 202.72C214.935 202.779 214.651 202.93 214.429 203.153C214.268 203.371 214.167 203.627 214.138 203.897C213.918 205.661 213.99 207.45 214.352 209.191C214.947 212.958 215.641 216.709 216.435 220.446C216.765 221.984 217.16 223.607 218.279 224.712C219.399 225.818 221.101 226.199 222.693 226.244C224.182 226.33 225.67 226.053 227.028 225.436C228.109 224.859 229.044 224.045 229.766 223.055C230.488 222.066 230.976 220.926 231.195 219.722C231.617 217.3 231.32 214.808 230.341 212.553C229.677 211.01 228.903 209.518 228.025 208.086C226.86 206.086 225.699 204.086 224.543 202.087C223.663 200.561 222.861 199.494 220.868 200.341Z" fill="url(#paint6_linear_966_542)"/>
<path d="M142.465 82.0149C141.899 83.4381 141.521 84.9288 141.34 86.4495C140.724 90.387 140.331 94.356 140.162 98.3377C139.838 105.94 140.33 113.555 140.117 121.157C139.897 129.063 138.965 137.26 141.812 144.636C142.255 145.975 143.004 147.192 143.999 148.192C144.503 148.684 145.123 149.039 145.803 149.225C146.482 149.41 147.198 149.42 147.882 149.252C148.501 149.014 149.056 148.636 149.505 148.148C149.954 147.661 150.284 147.076 150.47 146.44C150.827 145.166 150.984 143.844 150.936 142.522L151.039 135.295C151.039 135.146 151.039 134.972 151.188 134.907C151.251 134.886 151.318 134.881 151.382 134.893C151.447 134.906 151.507 134.935 151.557 134.978C152.114 135.459 152.643 135.971 153.143 136.51C153.718 136.976 154.637 137.202 155.149 136.666C155.29 136.477 155.39 136.262 155.443 136.032C155.495 135.803 155.499 135.565 155.453 135.334C155.142 132.205 152.411 129.949 150.787 127.253C148.445 123.375 148.445 118.487 149.034 113.975C149.765 108.325 151.292 102.811 152.813 97.3163L154.107 92.6684C155.084 89.1387 156.048 85.2859 154.624 81.905C154.053 80.6064 153.182 79.4612 152.084 78.5624C150.985 77.6637 149.689 77.037 148.302 76.7334C145.597 76.2356 143.443 79.817 142.465 82.0149Z" fill="#F5BCBA"/>
<path d="M202.542 111.409C201.708 113.652 196.997 111.034 194.305 112.378C189.167 114.964 183.304 112.307 177.577 112.378C171.482 112.488 167.276 118.487 161.225 119.25C160.786 119.341 160.332 119.341 159.892 119.25C159.057 119.005 158.566 118.171 158.21 117.388C157.688 116.182 157.314 114.916 157.097 113.62C156.346 109.327 157.097 104.724 157.899 100.361C158.572 96.6632 159.243 92.9634 159.912 89.2614C160.688 84.9518 161.471 80.6162 162.261 76.2549C162.721 73.3777 163.369 70.5337 164.202 67.7411C164.357 67.2563 164.519 66.7844 164.694 66.319C166.199 62.5278 168.015 58.8673 170.123 55.3746C171.417 53.1314 172.711 50.8495 174.711 49.1493C176.943 47.2681 179.823 46.3308 182.715 45.8783C185.317 45.3885 187.998 45.5438 190.526 46.3308C191.969 46.835 192.512 48.3606 193.658 49.298C195.11 50.3726 196.405 51.6431 197.508 53.0732C198.628 54.7999 199.428 56.7137 199.87 58.7232C203.927 74.4836 198.058 91.4852 201.915 107.291C202.355 109.146 203.209 109.637 202.542 111.409Z" fill="#51CF66"/>
<path d="M197.029 56.0473L197.533 59.3507L195.592 58.2711V67.024L193.379 57.3014L195.521 54.1855L197.029 56.0473Z" fill="url(#paint7_linear_966_542)"/>
<path d="M180.593 55.8342L181.816 56.4806L183.757 58.1678L178.58 72.0406C178.58 72.0406 186.099 60.4821 186.345 54.5865C186.497 50.96 186.045 47.3335 185.006 43.8555L180.593 55.8342Z" fill="url(#paint8_linear_966_542)"/>
<path d="M164.015 95.5968C163.604 98.7727 163.604 101.988 164.015 105.164C164.28 107.162 164.707 109.153 164.571 111.157C164.577 111.548 164.452 111.931 164.215 112.243C163.911 112.49 163.538 112.636 163.148 112.663C161.124 112.982 159.099 113.307 157.071 113.639C156.321 109.347 157.071 104.744 157.874 100.38C158.547 96.6828 159.218 92.983 159.886 89.281C160.663 84.9713 161.446 80.6358 162.235 76.2744C162.696 73.3972 163.344 70.5532 164.176 67.7607C164.332 67.2759 164.494 66.804 164.668 66.3385C166.674 65.2266 169.463 64.3992 170.706 66.1963C172 68.1356 170.298 72.6608 169.793 74.6001C167.956 81.627 164.94 88.3436 164.015 95.5968Z" fill="url(#paint9_linear_966_542)"/>
<path d="M210.559 39.5496C210.626 40.3534 210.603 41.1623 210.488 41.9608C210.423 42.3589 210.224 42.723 209.924 42.9931C209.624 43.2633 209.241 43.4236 208.838 43.4476C206.819 43.299 205.363 45.2318 203.758 46.473C202.499 47.4155 201.004 47.9932 199.438 48.1426C197.872 48.292 196.295 48.0073 194.88 47.3199C194.599 47.2189 194.29 47.2297 194.016 47.35C193.743 47.4703 193.526 47.6909 193.411 47.9663C193.209 48.5366 193.165 49.1506 193.282 49.744L194.026 56.8162C194.168 58.1802 194.181 59.848 193.023 60.585C191.865 61.3219 190.493 60.6819 189.535 59.848C188.03 58.4016 186.941 56.5775 186.384 54.5665C185.118 50.4923 184.937 46.1591 185.857 41.9935C186.777 37.8278 188.767 33.9734 191.632 30.8096C192.707 29.6088 193.967 28.5875 195.365 27.7842C196.829 27.0254 198.4 26.4956 200.025 26.2133C201.478 25.8706 202.981 25.7874 204.464 25.9677C206.455 26.3293 208.265 27.3521 209.602 28.8702C210.585 29.9433 211.543 33.1432 212.578 33.6669C211.808 35.6191 210.592 37.3452 210.559 39.5496Z" fill="#F5BCBA"/>
<path d="M195.159 11.7909C194.211 11.5692 193.221 11.5981 192.286 11.8749C190.462 12.5214 189.439 14.4284 188.779 16.2449C188.119 18.0614 187.576 20.046 186.139 21.3324C184.903 22.4443 183.149 22.8904 182.036 24.1186C180.742 25.5473 180.619 27.6612 180.742 29.5811C180.742 31.0216 181.148 32.4329 181.913 33.6538C182.599 34.5846 183.654 35.2311 184.191 36.2395C184.799 37.3967 185.007 39.1873 186.314 39.2649C186.859 39.2374 187.374 39.0067 187.757 38.6185C189.078 37.4776 190.074 36.0078 190.643 34.3584C190.96 33.4404 191.167 32.419 191.866 31.7726C192.565 31.1261 193.988 31.0874 194.305 32.0053C194.394 32.5893 194.304 33.1866 194.046 33.7184C193.878 34.2873 193.949 35.0565 194.506 35.2505C195.554 33.6344 196.143 31.7338 197.385 30.2664C198.09 29.4411 198.975 28.7879 199.972 28.3568C200.969 27.9258 202.051 27.7282 203.136 27.7794C204.22 27.8306 205.279 28.129 206.231 28.652C207.182 29.1749 208.001 29.9085 208.626 30.7964C209.273 31.7209 209.713 32.8198 210.619 33.4792C211.472 33.9987 212.447 34.2841 213.446 34.3067C215.672 34.5265 218.028 34.6105 220.034 33.6214C222.04 32.6324 223.522 30.234 222.752 28.1331C222.143 26.4846 220.409 25.5473 218.727 25.0172C217.044 24.4871 215.245 24.2221 213.763 23.2783C211.751 21.9854 210.677 19.684 209.506 17.596C208.334 15.5079 206.749 13.3617 204.406 12.8704C203.45 12.7217 202.477 12.7217 201.52 12.8704C200.587 13.0682 199.632 13.1421 198.68 13.0902C197.515 12.851 196.389 12.0624 195.159 11.7909Z" fill="#2E2E3F"/>
<path d="M195.158 64.91C196.636 72.3884 197.072 80.035 196.452 87.6326C195.941 93.9549 194.725 100.232 194.77 106.574C194.865 108.357 194.811 110.145 194.608 111.92C194.324 113.678 182.521 113.006 180.799 112.986C177.9 112.948 181.576 116.865 179.395 114.977C175.972 111.997 174.445 107.349 174.024 102.837C173.422 96.4049 174.742 89.9663 176.179 83.6634C177.176 79.2999 178.237 74.9235 180.023 70.8185C182.236 65.7439 185.737 59.2859 186.863 53.8622C187.024 53.067 184.274 50.1774 185.458 50.2162C186.228 50.2162 185.866 51.4121 186.002 52.0069C186.245 52.9125 186.709 53.7434 187.354 54.4246C188.257 55.4775 189.48 56.2063 190.836 56.4997C191.709 56.6613 192.706 56.6225 193.34 57.2431C194.11 57.993 193.987 59.454 194.207 60.4753C194.524 61.9363 194.861 63.4167 195.158 64.91Z" fill="#F2F2F2"/>
<path d="M168.959 45.6784C165.827 47.1136 163.135 49.3373 160.592 51.6646C158.487 53.5595 156.499 55.5801 154.639 57.7153C152.995 59.6547 151.494 61.6651 149.759 63.4946C147.365 66.0092 144.376 68.4399 143.903 71.8984C143.759 73.7018 144.075 75.5124 144.822 77.1605C145.438 78.8432 146.347 80.4036 147.508 81.7697C148.98 83.3969 150.923 84.5264 153.066 85.0019C153.738 85.1768 154.439 85.2077 155.124 85.0924C156.088 84.8182 156.975 84.3223 157.712 83.6443C159.399 82.3691 160.997 80.9804 162.494 79.4877C164.021 77.9039 165.316 76.1003 166.804 74.4777C168.098 73.0814 169.476 71.8208 170.771 70.4503C172.317 68.8084 173.696 67.0177 175.074 65.227C177.024 62.7982 178.812 60.2435 180.425 57.5796C181.773 55.2286 182.844 52.7296 183.616 50.1325C184.114 48.4388 184.91 46.2926 183.188 45.0708C179.532 42.4979 172.602 43.9783 168.959 45.6784Z" fill="#51CF66"/>
<path d="M168.959 45.6784C165.827 47.1136 163.135 49.3373 160.592 51.6646C158.487 53.5595 156.499 55.5801 154.639 57.7153C152.995 59.6547 151.494 61.6651 149.759 63.4946C147.365 66.0092 144.376 68.4399 143.903 71.8984C143.759 73.7018 144.075 75.5124 144.822 77.1605C145.438 78.8432 146.347 80.4036 147.508 81.7697C148.98 83.3969 150.923 84.5264 153.066 85.0019C153.738 85.1768 154.439 85.2077 155.124 85.0924C156.088 84.8182 156.975 84.3223 157.712 83.6443C159.399 82.3691 160.997 80.9804 162.494 79.4877C164.021 77.9039 165.316 76.1003 166.804 74.4777C168.098 73.0814 169.476 71.8208 170.771 70.4503C172.317 68.8084 173.696 67.0177 175.074 65.227C177.024 62.7982 178.812 60.2435 180.425 57.5796C181.773 55.2286 182.844 52.7296 183.616 50.1325C184.114 48.4388 184.91 46.2926 183.188 45.0708C179.532 42.4979 172.602 43.9783 168.959 45.6784Z" fill="#51CF66"/>
<path d="M223.204 75.1949C222.504 75.6365 222.004 76.3329 221.81 77.1366C221.615 77.9403 221.742 78.7881 222.162 79.5003C223.249 81.3882 224.706 83.0373 226.446 84.3486C227.482 85.4605 229.811 85.6415 231.882 84.4262C233.953 83.2109 243.834 77.8389 248.771 74.3287C249.133 74.0799 249.441 73.7601 249.675 73.3887C249.91 73.0172 250.066 72.602 250.134 72.1682C250.203 71.7345 250.182 71.2914 250.073 70.8659C249.965 70.4405 249.77 70.0416 249.502 69.6936L245.367 64.5221C244.877 63.91 244.178 63.5003 243.404 63.3714C242.631 63.2426 241.836 63.4037 241.174 63.8239L223.204 75.1949Z" fill="#3D3D54"/>
<path d="M157.53 130.913C158.261 133.59 159.556 136.081 161.329 138.217C163.27 140.48 165.91 142.096 168.447 143.635L179.131 150.131C180.697 151.032 182.196 152.045 183.615 153.163C187.116 156.046 189.439 160.067 191.697 163.998L207.279 191.129C208.069 192.519 209.175 194.09 210.773 194.038C211.634 193.927 212.443 193.567 213.103 193.004C215.103 191.601 217.251 190.004 217.846 187.632C218.26 185.977 217.846 184.238 217.348 182.596C214.954 174.509 211.201 166.894 207.434 159.324C201.451 147.343 195.379 135.386 189.219 123.452C187.582 120.285 185.595 115.352 182.89 113.025C182.89 113.025 157.757 111.5 157.123 113.988C155.71 119.561 155.851 125.414 157.53 130.913Z" fill="#525263"/>
<path d="M157.53 130.913C158.261 133.59 159.556 136.081 161.329 138.217C163.27 140.48 165.91 142.096 168.447 143.635L179.131 150.131C180.697 151.032 182.196 152.045 183.615 153.163C187.116 156.046 189.439 160.067 191.697 163.998L207.279 191.129C208.069 192.519 209.175 194.09 210.773 194.038C211.634 193.927 212.443 193.567 213.103 193.004C215.103 191.601 217.251 190.004 217.846 187.632C218.26 185.977 217.846 184.238 217.348 182.596C214.954 174.509 211.201 166.894 207.434 159.324C201.451 147.343 195.379 135.386 189.219 123.452C187.582 120.285 185.595 115.352 182.89 113.025C182.89 113.025 157.757 111.5 157.123 113.988C155.71 119.561 155.851 125.414 157.53 130.913Z" fill="url(#paint10_linear_966_542)"/>
<path d="M185.795 42.1357L182.243 43.5385L180.088 55.5819L187.251 55.2586L185.795 42.1357Z" fill="#51CF66"/>
<path d="M193.314 54.9677C193.314 55.5107 193.314 56.0537 193.314 56.5967C193.314 56.8321 193.327 57.0674 193.353 57.3014C193.391 57.5389 193.443 57.7741 193.508 58.006L194.401 61.5227L194.77 55.8081C195.825 56.3187 196.905 56.7842 198.005 57.1915C197.922 56.335 197.704 55.4972 197.358 54.7091C196.711 53.0542 196.116 51.3928 195.417 49.7702C195.254 49.3368 195.017 48.9345 194.718 48.5808C194.567 48.4053 194.378 48.2673 194.164 48.1776C193.951 48.0878 193.72 48.0488 193.489 48.0636C192.842 48.3351 193.249 50.7593 193.256 51.2958L193.314 54.9677Z" fill="#51CF66"/>
<path d="M245.665 72.3634L232.516 80.6703C232.285 80.7945 232.019 80.8366 231.762 80.7896C231.504 80.7426 231.27 80.6093 231.099 80.4117L226.918 75.7055C226.833 75.6254 226.766 75.5268 226.724 75.4172C226.681 75.3076 226.665 75.1898 226.675 75.0728C226.685 74.9557 226.721 74.8425 226.781 74.7416C226.841 74.6407 226.924 74.5547 227.022 74.4902L240.197 66.1898C240.427 66.0656 240.693 66.0235 240.951 66.0705C241.209 66.1175 241.442 66.2508 241.614 66.4484L245.794 71.1481C245.879 71.2301 245.944 71.3302 245.984 71.441C246.024 71.5517 246.039 71.6701 246.026 71.7873C246.014 71.9044 245.975 72.0171 245.912 72.117C245.849 72.2168 245.765 72.3011 245.665 72.3634Z" fill="#51CF66"/>
</g>
<defs>
<linearGradient id="paint0_linear_966_542" x1="187.161" y1="77.0569" x2="213.718" y2="76.6488" gradientUnits="userSpaceOnUse">
<stop offset="0.01"/>
<stop offset="0.13" stop-opacity="0.69"/>
<stop offset="1" stop-opacity="0"/>
</linearGradient>
<linearGradient id="paint1_linear_966_542" x1="49805.5" y1="7551.03" x2="24746.5" y2="46205.9" gradientUnits="userSpaceOnUse">
<stop offset="0.01"/>
<stop offset="0.13" stop-opacity="0.69"/>
<stop offset="1" stop-opacity="0"/>
</linearGradient>
<linearGradient id="paint2_linear_966_542" x1="13644.3" y1="15076.2" x2="7717.92" y2="18928.3" gradientUnits="userSpaceOnUse">
<stop offset="0.01"/>
<stop offset="0.13" stop-opacity="0.69"/>
<stop offset="1" stop-opacity="0"/>
</linearGradient>
<linearGradient id="paint3_linear_966_542" x1="3185.27" y1="6231.4" x2="5876.24" y2="7188.32" gradientUnits="userSpaceOnUse">
<stop offset="0.01"/>
<stop offset="0.13" stop-opacity="0.69"/>
<stop offset="1" stop-opacity="0"/>
</linearGradient>
<linearGradient id="paint4_linear_966_542" x1="14003.7" y1="17793.3" x2="19758.1" y2="17793.3" gradientUnits="userSpaceOnUse">
<stop offset="0.01"/>
<stop offset="0.13" stop-opacity="0.69"/>
<stop offset="1" stop-opacity="0"/>
</linearGradient>
<linearGradient id="paint5_linear_966_542" x1="6718.89" y1="6325" x2="6183.07" y2="6173" gradientUnits="userSpaceOnUse">
<stop offset="0.01"/>
<stop offset="0.13" stop-opacity="0.69"/>
<stop offset="1" stop-opacity="0"/>
</linearGradient>
<linearGradient id="paint6_linear_966_542" x1="5431.41" y1="8984.5" x2="5898.61" y2="8984.5" gradientUnits="userSpaceOnUse">
<stop offset="0.01"/>
<stop offset="0.13" stop-opacity="0.69"/>
<stop offset="1" stop-opacity="0"/>
</linearGradient>
<linearGradient id="paint7_linear_966_542" x1="1025.04" y1="1094.74" x2="1206.8" y2="1143.67" gradientUnits="userSpaceOnUse">
<stop offset="0.01"/>
<stop offset="0.13" stop-opacity="0.69"/>
<stop offset="1" stop-opacity="0"/>
</linearGradient>
<linearGradient id="paint8_linear_966_542" x1="2321.05" y1="2450.3" x2="1864.42" y2="2500.32" gradientUnits="userSpaceOnUse">
<stop offset="0.01"/>
<stop offset="0.13" stop-opacity="0.69"/>
<stop offset="1" stop-opacity="0"/>
</linearGradient>
<linearGradient id="paint9_linear_966_542" x1="2874" y1="7084.8" x2="3790.65" y2="7075.36" gradientUnits="userSpaceOnUse">
<stop offset="0.01"/>
<stop offset="0.13" stop-opacity="0.69"/>
<stop offset="1" stop-opacity="0"/>
</linearGradient>
<linearGradient id="paint10_linear_966_542" x1="15094.7" y1="20379.9" x2="19799.7" y2="18877.8" gradientUnits="userSpaceOnUse">
<stop offset="0.01"/>
<stop offset="0.13" stop-opacity="0.69"/>
<stop offset="1" stop-opacity="0"/>
</linearGradient>
<clipPath id="clip0_966_542">
<rect width="340" height="256" fill="white"/>
</clipPath>
</defs>
</svg>
