<svg width="266" height="200" viewBox="0 0 266 200" fill="none" xmlns="http://www.w3.org/2000/svg">
<path opacity="0.24" d="M239.299 195.12C238.902 195.318 238.506 195.517 238.109 195.698C230.464 199.185 221.878 199.945 213.469 199.991C176.673 200.257 140.093 188.277 103.529 192.638C80.8891 195.335 56.0001 203.795 36.7268 191.616C27.6935 185.896 21.698 176.495 16.6771 167.043C10.1964 154.851 4.66508 141.351 6.0532 127.602C6.22602 125.897 6.50787 124.205 6.89704 122.536C10.1036 108.23 20.2761 96 30.976 85.6744C42.9163 74.1245 56.2912 63.4653 64.2528 48.9097C70.5816 37.4062 73.3874 23.7076 82.5051 14.2726C108.149 -12.3226 167.041 3.45303 193.964 19.9083C211.385 30.5674 225.489 47.6517 229.603 67.6614C232.135 80.0387 230.869 93.0746 234.489 105.19C240.189 124.372 257.543 139.426 259.277 159.351C260.53 173.785 252.205 188.577 239.299 195.12Z" fill="#51CF66"/>
<path opacity="0.24" d="M239.299 195.12C238.902 195.318 238.506 195.516 238.109 195.698C230.464 199.185 221.878 199.945 213.469 199.991C176.673 200.257 140.093 188.277 103.529 192.637C80.8891 195.335 56 203.795 36.7268 191.616C27.6935 185.896 21.698 176.495 16.6771 167.043C10.1964 154.851 4.66508 141.351 6.0532 127.602C6.22602 125.897 6.50787 124.205 6.89704 122.536C7.42329 122.327 7.96148 122.149 8.50877 122.004C20.6136 118.669 35.6424 122.468 43.6673 132.233C48.8527 138.565 51.2999 146.623 54.6668 154.095C58.0337 161.567 63.0419 169.048 70.7672 171.724C83.4248 176.102 97.2596 165.941 110.272 168.98C117.672 170.732 123.469 176.469 130.587 179.146C151.312 186.959 175.572 167.114 195.719 176.351C198.031 177.411 200.195 178.846 202.626 179.555C205.68 180.467 208.916 180.201 212.102 180.138C217.183 180.022 222.263 180.414 227.266 181.307C229.873 181.788 232.582 182.464 234.464 184.317C235.818 185.638 236.594 187.441 237.274 189.205C238.033 191.135 238.712 193.119 239.299 195.12Z" fill="#51CF66"/>
<path d="M210.761 126.648C210.449 117.42 212.449 108.289 214.537 99.2969C223.368 107.161 232.376 115.25 238.034 125.613C240.143 129.476 241.755 133.634 244.278 137.222C247.379 141.647 251.733 145.083 254.712 149.587C260.404 158.19 260.024 170.374 253.805 178.605C253.242 179.467 252.46 180.163 251.539 180.623C250.358 181.117 249.008 180.881 247.767 180.573C236.861 177.862 227.595 169.685 223.14 159.419C218.322 148.321 211.191 139.418 210.761 126.648Z" fill="#51CF66"/>
<path d="M210.761 126.648C210.449 117.42 212.449 108.289 214.537 99.2969C223.368 107.161 232.376 115.25 238.034 125.613C240.143 129.476 241.755 133.634 244.278 137.222C247.379 141.647 251.733 145.083 254.712 149.587C260.404 158.19 260.024 170.374 253.805 178.605C253.242 179.467 252.46 180.163 251.539 180.623C250.358 181.117 249.008 180.881 247.767 180.573C236.861 177.862 227.595 169.685 223.14 159.419C218.322 148.321 211.191 139.418 210.761 126.648Z" fill="url(#paint0_linear_966_1025)"/>
<path d="M86.6578 161.496C88.7084 168.415 92.6997 174.869 93.109 182.071C93.2946 185.36 91.5479 191.46 90.9698 194.698C97.3619 195.715 105.07 192.933 111.475 192.013C112.441 191.874 113.454 191.692 114.213 191.08C114.973 190.468 115.353 189.56 115.707 188.669C120.833 175.719 123.01 161.788 122.078 147.89C121.93 145.75 121.702 143.58 120.918 141.583C120.768 141.087 120.474 140.646 120.074 140.317C119.557 140.039 118.97 139.922 118.386 139.979L102.425 140.068C97.5729 140.093 89.915 139.966 86.2908 143.922C82.9703 147.506 85.4047 157.27 86.6578 161.496Z" fill="#606161"/>
<path d="M86.6578 161.496C88.7084 168.415 92.6997 174.869 93.109 182.071C93.2946 185.36 91.5479 191.46 90.9698 194.698C97.3619 195.715 105.07 192.933 111.475 192.013C112.441 191.874 113.454 191.692 114.213 191.08C114.973 190.468 115.353 189.56 115.707 188.669C120.833 175.719 123.01 161.788 122.078 147.89C121.93 145.75 121.702 143.58 120.918 141.583C120.768 141.087 120.474 140.646 120.074 140.317C119.557 140.039 118.97 139.922 118.386 139.979L102.425 140.068C97.5729 140.093 89.915 139.966 86.2908 143.922C82.9703 147.506 85.4047 157.27 86.6578 161.496Z" fill="url(#paint1_linear_966_1025)"/>
<path d="M134.542 158.233C134.011 168.519 134.152 178.828 134.964 189.096C135.056 189.614 134.997 190.147 134.795 190.633C134.348 191.477 133.225 191.604 132.263 191.633C126.582 191.791 120.898 191.725 115.214 191.435C114.642 191.497 114.068 191.346 113.601 191.012C113.134 190.677 112.807 190.181 112.682 189.619C111.226 186.339 109.986 182.916 107.876 180.011C105.286 176.436 101.548 173.873 98.6744 170.517C94.5143 165.642 92.3962 159.318 91.371 152.994C91.1009 151.335 90.949 149.452 92.0123 148.148C92.9531 146.987 94.5438 146.653 95.9952 146.273C101.058 144.94 105.607 142.196 110.079 139.481C113.665 137.303 117.289 135.116 120.488 132.381C123.095 130.152 125.703 126.095 129.69 127.602C132.158 128.535 132.242 130.629 132.221 132.98C132.221 136.357 132.052 139.279 133.014 142.559C134.618 147.89 134.824 152.699 134.542 158.233Z" fill="#606161"/>
<path d="M134.542 158.233C134.011 168.519 134.152 178.828 134.964 189.096C135.056 189.614 134.997 190.147 134.795 190.633C134.348 191.477 133.225 191.604 132.263 191.633C126.582 191.791 120.898 191.725 115.214 191.435C114.642 191.497 114.068 191.346 113.601 191.012C113.134 190.677 112.807 190.181 112.682 189.619C111.226 186.339 109.986 182.916 107.876 180.011C105.286 176.436 101.548 173.873 98.6744 170.517C94.5143 165.642 92.3962 159.318 91.371 152.994C91.1009 151.335 90.949 149.452 92.0123 148.148C92.9531 146.987 94.5438 146.653 95.9952 146.273C101.058 144.94 105.607 142.196 110.079 139.481C113.665 137.303 117.289 135.116 120.488 132.381C123.095 130.152 125.703 126.095 129.69 127.602C132.158 128.535 132.242 130.629 132.221 132.98C132.221 136.357 132.052 139.279 133.014 142.559C134.618 147.89 134.824 152.699 134.542 158.233Z" fill="url(#paint2_linear_966_1025)"/>
<path d="M125.677 38.1744C126.683 38.1725 127.664 38.4871 128.482 39.0736C128.918 39.4374 129.278 39.8835 129.541 40.3864C131.01 43.0586 130.465 46.4696 131.858 49.184C132.229 49.9016 132.744 50.6361 132.617 51.434C132.507 52.1474 131.917 52.6751 131.6 53.321C131.018 54.5114 131.419 55.9467 131.098 57.2301C130.896 57.9345 130.556 58.5917 130.098 59.1635C129.477 60.0682 128.663 60.8238 127.714 61.3755C127.239 61.6481 126.712 61.8213 126.168 61.8844C125.623 61.9475 125.071 61.8994 124.546 61.7428C123.398 61.3544 122.571 60.3708 121.829 59.4126C121.071 58.5102 120.445 57.5054 119.968 56.428C119.234 54.5874 119.318 52.5358 119.419 50.5559C119.622 46.4738 119.858 37.9 125.677 38.1744Z" fill="url(#paint3_linear_966_1025)"/>
<path d="M132.904 37.3684C132.805 37.4731 132.691 37.5627 132.566 37.6344C132.395 37.7015 132.21 37.7303 132.026 37.7188C131.017 37.7243 130.01 37.8061 129.014 37.9636C128.844 37.9746 128.68 38.0331 128.541 38.1325C128.406 38.2866 128.326 38.4811 128.313 38.6855C128.016 40.52 127.931 42.3827 128.06 44.2367C128.103 44.8277 128.204 45.5032 128.689 45.8409C129.081 46.0572 129.531 46.1458 129.976 46.0942L131.524 46.0646C131.654 46.0513 131.784 46.0763 131.9 46.1364C132.06 46.2377 132.094 46.453 132.14 46.6387C132.406 47.787 133.465 48.6101 134.583 48.9816C135.701 49.3531 136.904 49.3658 138.077 49.4755C141.781 49.8302 145.33 51.1937 149.047 51.5441C149.338 51.6088 149.641 51.6007 149.929 51.5205C150.217 51.4402 150.48 51.2903 150.696 51.0839L152.962 49.2982C153.164 49.1136 153.401 48.9703 153.658 48.8761C153.873 48.8235 154.096 48.8063 154.316 48.8254C156.696 48.9225 159.325 49.3236 161.244 47.9178C162.214 47.1334 162.939 46.0874 163.333 44.9037C163.842 43.666 164.074 42.3317 164.012 40.9946C163.871 39.1636 163.015 37.4619 161.628 36.2582C161.423 36.0674 161.186 35.9145 160.928 35.8065C160.623 35.713 160.305 35.6716 159.987 35.684L152.131 35.5321C148.308 35.4603 144.486 35.3885 140.663 35.4476C139.272 35.4319 137.887 35.6182 136.549 36.0006C135.237 36.3975 133.967 36.3637 132.904 37.3684Z" fill="#606161"/>
<path d="M132.904 37.3684C132.805 37.4731 132.691 37.5627 132.566 37.6344C132.395 37.7015 132.21 37.7303 132.026 37.7188C131.017 37.7243 130.01 37.8061 129.014 37.9636C128.844 37.9746 128.68 38.0331 128.541 38.1325C128.406 38.2866 128.326 38.4811 128.313 38.6855C128.016 40.52 127.931 42.3827 128.06 44.2367C128.103 44.8277 128.204 45.5032 128.689 45.8409C129.081 46.0572 129.531 46.1458 129.976 46.0942L131.524 46.0646C131.654 46.0513 131.784 46.0763 131.9 46.1364C132.06 46.2377 132.094 46.453 132.14 46.6387C132.406 47.787 133.465 48.6101 134.583 48.9816C135.701 49.3531 136.904 49.3658 138.077 49.4755C141.781 49.8302 145.33 51.1937 149.047 51.5441C149.338 51.6088 149.641 51.6007 149.929 51.5205C150.217 51.4402 150.48 51.2903 150.696 51.0839L152.962 49.2982C153.164 49.1136 153.401 48.9703 153.658 48.8761C153.873 48.8235 154.096 48.8063 154.316 48.8254C156.696 48.9225 159.325 49.3236 161.244 47.9178C162.214 47.1334 162.939 46.0874 163.333 44.9037C163.842 43.666 164.074 42.3317 164.012 40.9946C163.871 39.1636 163.015 37.4619 161.628 36.2582C161.423 36.0674 161.186 35.9145 160.928 35.8065C160.623 35.713 160.305 35.6716 159.987 35.684L152.131 35.5321C148.308 35.4603 144.486 35.3885 140.663 35.4476C139.272 35.4319 137.887 35.6182 136.549 36.0006C135.237 36.3975 133.967 36.3637 132.904 37.3684Z" fill="url(#paint4_linear_966_1025)"/>
<path d="M127.491 33.0376C129.382 37.1366 128.816 41.9026 128.529 46.39C128.077 53.458 128.412 60.5543 129.529 67.548C127.23 65.5723 124.327 64.4072 121.365 63.7487C118.403 63.0901 115.365 62.9466 112.336 62.7946C111.691 62.7273 111.039 62.76 110.404 62.8917C108.741 63.3139 107.725 65.0024 107.168 66.6361C106.611 68.2698 106.324 70.0133 105.315 71.4275L106.159 63.7571C106.289 63.1252 106.23 62.4689 105.99 61.8701C105.718 61.4178 105.311 61.0621 104.826 60.8527C104.005 60.4588 103.096 60.2851 102.187 60.3487C101.279 60.4124 100.403 60.7112 99.6448 61.2158C99.0583 58.4254 101.168 55.8503 101.847 53.081C102.332 51.1096 102.079 49.0369 101.944 47.0106C101.717 43.901 101.809 40.7762 102.218 37.6854C102.472 35.8322 102.864 33.9663 103.788 32.3453C105.294 29.7026 108.054 27.9972 110.91 26.9545C114.015 25.8231 117.817 25.4685 120.344 27.5961C120.964 28.1196 121.559 28.909 122.386 29.0947C123.108 29.2551 123.652 29.0947 124.369 29.4873C125.778 30.2387 126.812 31.6149 127.491 33.0376Z" fill="#606161"/>
<path d="M127.491 33.0376C129.382 37.1366 128.816 41.9026 128.529 46.39C128.077 53.458 128.412 60.5543 129.529 67.548C127.23 65.5723 124.327 64.4072 121.365 63.7487C118.403 63.0901 115.365 62.9466 112.336 62.7946C111.691 62.7273 111.039 62.76 110.404 62.8917C108.741 63.3139 107.725 65.0024 107.168 66.6361C106.611 68.2698 106.324 70.0133 105.315 71.4275L106.159 63.7571C106.289 63.1252 106.23 62.4689 105.99 61.8701C105.718 61.4178 105.311 61.0621 104.826 60.8527C104.005 60.4588 103.096 60.2851 102.187 60.3487C101.279 60.4124 100.403 60.7112 99.6448 61.2158C99.0583 58.4254 101.168 55.8503 101.847 53.081C102.332 51.1096 102.079 49.0369 101.944 47.0106C101.717 43.901 101.809 40.7762 102.218 37.6854C102.472 35.8322 102.864 33.9663 103.788 32.3453C105.294 29.7026 108.054 27.9972 110.91 26.9545C114.015 25.8231 117.817 25.4685 120.344 27.5961C120.964 28.1196 121.559 28.909 122.386 29.0947C123.108 29.2551 123.652 29.0947 124.369 29.4873C125.778 30.2387 126.812 31.6149 127.491 33.0376Z" fill="url(#paint5_linear_966_1025)"/>
<path d="M113.512 23.02L109.512 19.8834C109.291 19.6508 109.006 19.4904 108.693 19.4234C108.379 19.3563 108.053 19.3857 107.757 19.5077C103.74 20.5251 99.8373 22.2855 96.8332 25.1392C92.614 29.1538 90.5424 34.9287 89.1712 40.5981C88.9518 41.5142 88.7492 42.502 89.091 43.3759C89.3926 43.9967 89.8243 44.5452 90.3568 44.9842L93.6266 48.125C93.8743 48.3225 94.0591 48.5881 94.1583 48.8891C94.194 49.2368 94.1075 49.5861 93.9135 49.8769C93.2975 51.0294 92.4495 52.0425 91.804 53.1696C91.1584 54.2968 90.6648 55.6181 90.8968 56.9056C91.0547 57.6878 91.4584 58.3989 92.049 58.9351C92.6395 59.4713 93.386 59.8045 94.1793 59.886C95.3101 59.9789 96.4113 59.5398 97.4492 59.0755C105.028 55.6529 111.617 50.3649 116.6 43.7051C119.275 40.1169 121.448 36.174 123.494 32.189C124.68 29.8756 125.836 27.5201 126.503 25.0125C126.991 23.4123 127.084 21.7174 126.773 20.0734C126.725 19.7774 126.595 19.5009 126.397 19.2756C126.113 19.0503 125.764 18.9243 125.401 18.9167C123.782 18.7409 122.143 18.9219 120.601 19.447C119.059 19.972 117.65 20.8285 116.474 21.9562C116.008 22.4892 115.384 22.8591 114.693 23.0115C114.351 23.0833 113.786 23.2226 113.512 23.02Z" fill="#51CF66"/>
<path d="M112.816 22.3232L108.817 19.1867C108.586 18.9774 108.313 18.8218 108.015 18.7308C107.694 18.6817 107.366 18.7092 107.057 18.811C103.045 19.8241 99.1378 21.5845 96.1379 24.4382C91.9187 28.457 89.8471 34.232 88.4759 39.9014C88.2565 40.8175 88.0539 41.8011 88.3957 42.6791C88.6959 43.2996 89.1279 43.8471 89.6614 44.2833L92.9313 47.424C93.1807 47.62 93.3658 47.8861 93.4629 48.1881C93.5028 48.5355 93.4176 48.8858 93.2225 49.1759C92.6064 50.3284 91.7584 51.3458 91.1129 52.4729C90.4673 53.6 89.9737 54.9171 90.2057 56.2047C90.3632 56.9867 90.7661 57.6979 91.3558 58.2348C91.9455 58.7716 92.6911 59.106 93.484 59.1892C94.619 59.2821 95.7202 58.8431 96.7581 58.3787C104.337 54.9573 110.924 49.669 115.905 43.0084C118.584 39.4159 120.757 35.4773 122.803 31.4923C123.989 29.1789 125.145 26.8233 125.807 24.3158C126.296 22.7171 126.389 21.0234 126.077 19.3809C126.031 19.0852 125.903 18.8087 125.706 18.583C125.421 18.3573 125.07 18.23 124.706 18.22C123.09 18.0537 121.457 18.2409 119.921 18.7686C118.384 19.2963 116.981 20.152 115.808 21.2763C115.332 21.8153 114.694 22.1843 113.989 22.3275C113.652 22.3781 113.086 22.5385 112.816 22.3232Z" fill="url(#paint6_linear_966_1025)"/>
<path d="M90.4589 78.975C90.2395 93.0367 89.9357 107.153 87.7418 121.042C86.822 126.88 85.5689 132.841 86.687 138.641C86.8309 140.127 87.3991 141.541 88.3237 142.713C89.2484 143.885 90.4905 144.767 91.9019 145.252C94.22 146.24 96.6414 146.965 99.1209 147.413C102.623 148.122 106.256 148.578 109.753 147.835C117.015 146.307 122.339 139.908 125.314 133.107C125.938 131.68 127.06 129.911 128.554 130.354C130.381 130.895 130.077 134.082 131.853 134.774C133.621 130.447 131.17 125.639 130.934 120.97C130.668 115.744 133.208 110.839 135.414 106.094C137.621 101.349 139.6 96.0213 138.174 90.9851C137.554 88.7857 136.317 86.8143 135.579 84.6529C134.52 81.5712 134.503 78.2236 133.613 75.0871C131.891 68.9997 126.9 64.1619 121.082 61.6797C115.538 59.3115 106.678 57.72 100.733 59.6576C91.8302 62.5747 90.5897 70.6883 90.4589 78.975Z" fill="#51CF66"/>
<path d="M90.4589 78.975C90.2395 93.0367 89.9357 107.153 87.7418 121.042C86.822 126.88 85.5689 132.841 86.687 138.641C86.8309 140.127 87.3991 141.541 88.3237 142.713C89.2484 143.885 90.4905 144.767 91.9019 145.252C94.22 146.24 96.6414 146.965 99.1209 147.413C102.623 148.122 106.256 148.578 109.753 147.835C117.015 146.307 122.339 139.908 125.314 133.107C125.938 131.68 127.06 129.911 128.554 130.354C130.381 130.895 130.077 134.082 131.853 134.774C133.621 130.447 131.17 125.639 130.934 120.97C130.668 115.744 133.208 110.839 135.414 106.094C137.621 101.349 139.6 96.0213 138.174 90.9851C137.554 88.7857 136.317 86.8143 135.579 84.6529C134.52 81.5712 134.503 78.2236 133.613 75.0871C131.891 68.9997 126.9 64.1619 121.082 61.6797C115.538 59.3115 106.678 57.72 100.733 59.6576C91.8302 62.5747 90.5897 70.6883 90.4589 78.975Z" fill="url(#paint7_linear_966_1025)"/>
<path d="M119.896 62.406C117.614 62.0176 114.993 61.8234 113.268 63.3685C112.521 64.0984 111.972 65.0063 111.673 66.0069C110.378 69.7175 110.905 73.9432 112.732 77.4048C114.559 80.8664 117.609 83.6399 121.086 85.472C125.907 88.0432 131.502 88.7594 136.815 87.4857C140.705 86.5021 144.266 84.404 148.207 83.5977C153.371 82.5339 159.202 83.6737 163.607 80.7693C164.085 80.4812 164.5 80.0992 164.826 79.6464C165.154 79.1167 165.35 78.5158 165.396 77.8945C165.75 74.6566 163.847 71.5623 161.599 69.2363C161.018 68.5648 160.298 68.0276 159.489 67.6617C158.754 67.4176 157.98 67.3089 157.206 67.3409C152.692 67.2986 148.194 67.9023 143.68 67.9065C140.444 67.9065 137.161 67.5984 134.089 66.5472C132.824 66.1251 131.706 65.4665 130.482 65.0064C128.944 64.4662 127.378 64.0096 125.79 63.6386C123.83 63.149 121.865 62.7381 119.896 62.406Z" fill="#51CF66"/>
<path d="M119.896 62.406C117.614 62.0176 114.993 61.8234 113.268 63.3685C112.521 64.0984 111.972 65.0063 111.673 66.0069C110.378 69.7175 110.905 73.9432 112.732 77.4048C114.559 80.8664 117.609 83.6399 121.086 85.472C125.907 88.0432 131.502 88.7594 136.815 87.4857C140.705 86.5021 144.266 84.404 148.207 83.5977C153.371 82.5339 159.202 83.6737 163.607 80.7693C164.085 80.4812 164.5 80.0992 164.826 79.6464C165.154 79.1167 165.35 78.5158 165.396 77.8945C165.75 74.6566 163.847 71.5623 161.599 69.2363C161.018 68.5648 160.298 68.0276 159.489 67.6617C158.754 67.4176 157.98 67.3089 157.206 67.3409C152.692 67.2986 148.194 67.9023 143.68 67.9065C140.444 67.9065 137.161 67.5984 134.089 66.5472C132.824 66.1251 131.706 65.4665 130.482 65.0064C128.944 64.4662 127.378 64.0096 125.79 63.6386C123.83 63.149 121.865 62.7381 119.896 62.406Z" fill="url(#paint8_linear_966_1025)"/>
<path d="M138.996 48.1797C138.959 48.3669 138.989 48.5611 139.081 48.7285C139.205 48.8753 139.379 48.9714 139.57 48.9987C140.836 49.3026 142.131 48.7623 143.405 48.4794C145.325 48.0573 147.321 48.2219 149.278 48.3865C149.462 48.3767 149.644 48.427 149.796 48.5298C149.948 48.6327 150.063 48.7825 150.122 48.9564C152.35 52.8317 154.633 56.897 154.86 61.3633C154.855 62.3678 154.912 63.3718 155.033 64.369C155.599 67.4802 158.278 69.6669 160.333 72.0647C161.333 73.234 162.227 74.5131 163.43 75.4799C164.632 76.4466 166.24 77.0587 167.712 76.6239C169.362 76.1426 170.425 74.4498 170.687 72.7528C170.948 71.0558 170.564 69.3292 170.18 67.6533C169.4 64.2212 168.607 60.7554 167.096 57.5767C164.94 53.0386 161.442 49.3068 158.561 45.1993C156.572 42.3677 154.869 39.3459 153.477 36.1781C153.173 35.4816 152.852 34.7428 152.211 34.3122C150.818 33.3539 148.89 34.46 147.241 34.0843C146.097 33.8225 145.241 32.8854 144.194 32.3535C143.148 31.8215 141.515 31.9693 141.241 33.1049C139.756 32.969 138.269 33.3394 137.022 34.156C136.853 34.2658 136.672 34.422 136.68 34.6204C136.688 34.8188 136.857 34.937 137.009 35.0425C139.452 36.7902 142.194 39.4117 143.359 42.2485C144.549 45.174 139.351 45.2036 138.996 48.1797Z" fill="url(#paint9_linear_966_1025)"/>
<path d="M99.3985 53.7689C102.917 51.6581 106.487 49.4799 109.259 46.4446C112.031 43.4094 113.87 39.627 115.292 35.7643C116.322 32.9782 117.157 30.0738 117.165 27.1061C117.165 26.2914 117.216 26.7389 116.891 25.9917C116.17 24.3031 113.613 22.6567 111.951 21.918C113.364 24.6661 112.773 27.503 111.347 30.2469C109.347 34.0715 106.98 37.7358 103.862 40.7203C102.597 41.9446 94.1582 48.5343 94.1582 48.5343C94.1582 48.8889 97.6855 52.3505 99.3985 53.7689Z" fill="#606161"/>
<path d="M99.3985 53.7689C102.917 51.6581 106.487 49.4799 109.259 46.4446C112.031 43.4094 113.87 39.627 115.292 35.7643C116.322 32.9782 117.157 30.0738 117.165 27.1061C117.165 26.2914 117.216 26.7389 116.891 25.9917C116.17 24.3031 113.613 22.6567 111.951 21.918C113.364 24.6661 112.773 27.503 111.347 30.2469C109.347 34.0715 106.98 37.7358 103.862 40.7203C102.597 41.9446 94.1582 48.5343 94.1582 48.5343C94.1582 48.8889 97.6855 52.3505 99.3985 53.7689Z" fill="url(#paint10_linear_966_1025)"/>
<path d="M105.247 26.2654C102.395 33.0535 98.1001 39.639 91.573 43.0415C90.9401 43.3708 90.1976 43.6705 89.5394 43.3961C89.2288 43.2357 88.9726 42.987 88.8029 42.6813C88.6332 42.3756 88.5577 42.0265 88.5858 41.678C88.654 40.9813 88.8606 40.3054 89.1934 39.6897L91.7249 34.1469C93.1721 30.9935 94.6446 27.8147 96.9019 25.1636C98.6824 23.0825 101.041 21.3643 103.729 20.6762C104.994 20.3596 105.977 20.0219 106.29 21.4656C106.636 23.0065 105.83 24.8808 105.247 26.2654Z" fill="url(#paint11_linear_966_1025)"/>
<path d="M98.3784 74.3779C98.0967 74.7063 97.9268 75.1158 97.8932 75.5472C97.8932 76.1298 98.3615 76.5899 98.7665 77.0121C103.488 81.9807 103.45 89.6216 103.83 96.4688C104.214 103.713 105.361 110.893 106.505 118.057C106.838 120.138 107.205 122.308 108.458 124.005C110.817 127.209 115.411 127.661 118.647 129.979C119.546 130.62 120.386 131.49 120.576 132.583C120.765 133.677 120.242 134.85 119.732 135.885L114.327 146.666C113.669 148.143 112.818 149.525 111.795 150.778C110.707 151.918 109.456 152.891 108.083 153.665C100.965 158.043 92.7626 161.095 84.4171 160.711C76.0715 160.327 67.6331 156.067 63.6839 148.688C60.8528 143.411 60.5195 137.159 60.836 131.178C61.1524 125.196 62.0595 119.206 61.4604 113.245C61.1313 109.973 60.3465 106.723 60.49 103.434C60.6798 98.9172 62.5996 94.6746 64.4729 90.5587C65.6501 87.9879 66.8441 85.3874 68.6288 83.1965C70.6161 80.7607 73.3121 78.8526 74.734 76.0496C75.2023 75.1251 75.5778 74.0486 76.5018 73.5674C77.1061 73.312 77.7643 73.2105 78.4174 73.2719C81.7041 73.3183 85.4212 73.2296 87.649 70.8107C89.3366 68.9575 89.67 66.26 90.5686 63.9044C91.4673 61.5489 93.6866 59.1849 96.1211 59.8392C95.3186 63.5277 95.0121 67.307 95.2098 71.0767C99.1589 68.2905 102.273 64.4406 106.272 61.7262C108.876 59.9574 112.639 58.3237 115.871 58.8894C120.377 59.6788 117.736 61.9246 115.091 62.9631C108.753 65.4368 102.353 68.6789 98.3784 74.3779Z" fill="#51CF66"/>
<path d="M98.3784 74.3779C98.0967 74.7063 97.9268 75.1158 97.8932 75.5472C97.8932 76.1298 98.3615 76.5899 98.7665 77.0121C103.488 81.9807 103.45 89.6216 103.83 96.4688C104.214 103.713 105.361 110.893 106.505 118.057C106.838 120.138 107.205 122.308 108.458 124.005C110.817 127.209 115.411 127.661 118.647 129.979C119.546 130.62 120.386 131.49 120.576 132.583C120.765 133.677 120.242 134.85 119.732 135.885L114.327 146.666C113.669 148.143 112.818 149.525 111.795 150.778C110.707 151.918 109.456 152.891 108.083 153.665C100.965 158.043 92.7626 161.095 84.4171 160.711C76.0715 160.327 67.6331 156.067 63.6839 148.688C60.8528 143.411 60.5195 137.159 60.836 131.178C61.1524 125.196 62.0595 119.206 61.4604 113.245C61.1313 109.973 60.3465 106.723 60.49 103.434C60.6798 98.9172 62.5996 94.6746 64.4729 90.5587C65.6501 87.9879 66.8441 85.3874 68.6288 83.1965C70.6161 80.7607 73.3121 78.8526 74.734 76.0496C75.2023 75.1251 75.5778 74.0486 76.5018 73.5674C77.1061 73.312 77.7643 73.2105 78.4174 73.2719C81.7041 73.3183 85.4212 73.2296 87.649 70.8107C89.3366 68.9575 89.67 66.26 90.5686 63.9044C91.4673 61.5489 93.6866 59.1849 96.1211 59.8392C95.3186 63.5277 95.0121 67.307 95.2098 71.0767C99.1589 68.2905 102.273 64.4406 106.272 61.7262C108.876 59.9574 112.639 58.3237 115.871 58.8894C120.377 59.6788 117.736 61.9246 115.091 62.9631C108.753 65.4368 102.353 68.6789 98.3784 74.3779Z" fill="url(#paint12_linear_966_1025)"/>
<path d="M87.9147 98.9843C88.3662 95.9279 89.2944 92.9729 90.2226 90.0264L92.8765 81.5834C93.0959 80.8869 93.3701 80.1228 94.0241 79.7978C94.9819 79.3165 96.0915 80.0764 96.813 80.87C102.024 86.569 101.876 95.1428 102.513 102.822C103.235 111.657 105.804 121.058 112.8 126.5C115.681 128.746 119.601 130.894 119.584 134.55C119.584 136.327 118.563 137.927 117.584 139.409L112.909 146.501C110.42 150.279 107.386 154.416 102.901 155.003C101.552 155.233 100.167 154.93 99.0365 154.159C97.6864 153.133 97.1674 151.373 96.7244 149.735C92.3702 133.626 85.7924 115.946 87.9147 98.9843Z" fill="url(#paint13_linear_966_1025)"/>
<path d="M89.1345 150.026C89.3822 150.654 89.7638 151.22 90.2526 151.685C91.396 152.631 93.0963 152.343 94.5097 151.896C97.1166 151.001 99.6548 149.918 102.104 148.654C103.84 147.865 105.508 146.935 107.091 145.872C107.793 145.413 108.393 144.816 108.855 144.116C109.082 143.764 109.224 143.364 109.269 142.948C109.314 142.532 109.262 142.111 109.117 141.718C108.916 141.323 108.659 140.959 108.353 140.637C105.756 137.584 103.867 133.993 102.822 130.122C102.315 128.243 102.011 126.301 101.227 124.524C101.143 124.292 100.997 124.087 100.805 123.933C100.633 123.847 100.446 123.797 100.254 123.786C100.063 123.776 99.8711 123.804 99.6909 123.87C96.5307 124.558 93.2946 125.284 90.5901 127.053C89.0422 128.141 87.5987 129.37 86.2781 130.725C85.3667 131.603 84.4385 132.469 84.409 133.807C84.3372 137.138 85.7 140.984 86.7464 144.095C87.424 146.117 88.2215 148.098 89.1345 150.026Z" fill="#51CF66"/>
<path d="M89.7536 149.482C90.0008 150.111 90.3824 150.679 90.8717 151.145C92.0151 152.091 93.7154 151.803 95.1289 151.352C97.7354 150.456 100.274 149.373 102.723 148.11C104.459 147.321 106.127 146.391 107.71 145.328C108.412 144.871 109.012 144.274 109.474 143.576C109.701 143.224 109.843 142.824 109.888 142.408C109.934 141.992 109.881 141.571 109.736 141.178C109.536 140.781 109.279 140.415 108.972 140.093C106.374 137.04 104.485 133.449 103.441 129.578C102.934 127.703 102.626 125.757 101.846 123.98C101.762 123.748 101.616 123.543 101.424 123.389C101.252 123.305 101.065 123.256 100.873 123.245C100.682 123.235 100.491 123.262 100.31 123.326C97.1498 124.018 93.9137 124.74 91.2092 126.513C89.6604 127.6 88.2167 128.829 86.8972 130.185C85.9859 131.059 85.0576 131.929 85.0281 133.263C84.9564 136.594 86.3192 140.439 87.3655 143.551C88.0424 145.574 88.8399 147.554 89.7536 149.482Z" fill="url(#paint14_linear_966_1025)"/>
<path d="M88.0246 85.5187C87.282 87.9418 86.8222 90.5084 85.4467 92.636C84.3877 94.2697 82.8561 95.5277 81.4047 96.8237C78.6697 99.2652 76.1434 101.931 73.8523 104.794C73.1646 105.638 72.4727 106.554 71.5276 107.128C70.6137 107.621 69.6085 107.922 68.5741 108.011C66.0343 108.362 63.4576 108.352 60.9205 107.981C60.1568 107.871 59.3383 107.694 58.8109 107.137C58.419 106.613 58.1822 105.99 58.1274 105.338C57.2081 99.5089 57.6967 93.5439 59.5523 87.9419C61.4078 82.3398 64.5765 77.2635 68.7935 73.1371C69.607 72.2811 70.5747 71.5865 71.6457 71.0897C72.6901 70.7247 73.7844 70.5225 74.8903 70.4903C79.8816 70.0977 85.1387 69.7473 89.6575 71.8876C90.5772 72.3097 92.7965 73.2384 93.2438 74.2136C93.788 75.3956 92.5518 76.413 91.9189 77.3459C90.2216 79.8611 88.909 82.6157 88.0246 85.5187Z" fill="#51CF66"/>
<path d="M88.0246 85.5187C87.282 87.9418 86.8222 90.5084 85.4467 92.636C84.3877 94.2697 82.8561 95.5277 81.4047 96.8237C78.6697 99.2652 76.1434 101.931 73.8523 104.794C73.1646 105.638 72.4727 106.554 71.5276 107.128C70.6137 107.621 69.6085 107.922 68.5741 108.011C66.0343 108.362 63.4576 108.352 60.9205 107.981C60.1568 107.871 59.3383 107.694 58.8109 107.137C58.419 106.613 58.1822 105.99 58.1274 105.338C57.2081 99.5089 57.6967 93.5439 59.5523 87.9419C61.4078 82.3398 64.5765 77.2635 68.7935 73.1371C69.607 72.2811 70.5747 71.5865 71.6457 71.0897C72.6901 70.7247 73.7844 70.5225 74.8903 70.4903C79.8816 70.0977 85.1387 69.7473 89.6575 71.8876C90.5772 72.3097 92.7965 73.2384 93.2438 74.2136C93.788 75.3956 92.5518 76.413 91.9189 77.3459C90.2216 79.8611 88.909 82.6157 88.0246 85.5187Z" fill="url(#paint15_linear_966_1025)"/>
<path d="M89.6834 117.095C86.4515 118.264 83.5276 120.139 80.6374 121.992C79.9961 122.414 79.321 122.836 79.0046 123.55C78.4645 124.744 79.1734 126.083 79.7725 127.256C81.3109 130.27 82.1748 133.584 82.304 136.966C84.633 136.252 87.0633 138.093 89.4766 137.81C90.5069 137.619 91.4918 137.235 92.3795 136.678L99.9487 132.558C100.619 132.274 101.224 131.855 101.726 131.327C102.227 130.799 102.615 130.174 102.864 129.489C103.632 127.919 104.417 126.205 104.058 124.495C103.872 123.791 103.588 123.116 103.214 122.49C102.413 120.958 99.9993 114.25 98.3327 114.013C97.5269 113.895 95.1135 115.398 94.2443 115.677C92.7381 116.171 91.2065 116.551 89.6834 117.095Z" fill="#51CF66"/>
<path d="M89.1379 117.327C85.906 118.5 82.9863 120.37 80.0919 122.228C79.4506 122.65 78.7755 123.072 78.4591 123.781C77.919 124.976 78.6321 126.314 79.227 127.488C80.7673 130.501 81.6313 133.815 81.7585 137.197C84.0917 136.484 86.5178 138.329 88.9311 138.041C89.9616 137.852 90.9466 137.468 91.8339 136.91L99.3948 132.794C100.064 132.509 100.668 132.09 101.169 131.562C101.669 131.034 102.056 130.409 102.306 129.725C103.074 128.155 103.859 126.441 103.504 124.731C103.316 124.027 103.032 123.353 102.66 122.726C101.859 121.198 99.4412 114.486 97.7746 114.249C96.9687 114.135 94.5553 115.634 93.6862 115.913C92.1926 116.402 90.6399 116.782 89.1379 117.327Z" fill="url(#paint16_linear_966_1025)"/>
<path d="M82.4256 144.311C83.174 146.466 83.7123 148.688 84.0331 150.947C84.1428 151.922 84.147 152.999 83.5648 153.788C82.9825 154.577 81.9362 154.89 80.9573 154.89C79.9792 154.829 79.0065 154.7 78.046 154.506C75.89 154.223 73.6496 154.577 71.5696 153.944C70.8728 153.718 70.1955 153.436 69.5444 153.1L63.9666 150.402C63.7168 150.296 63.4837 150.154 63.2746 149.98C63.0268 149.729 62.8342 149.428 62.7093 149.098C61.4749 146.287 61.1561 143.159 61.7979 140.157C62.4097 137.316 63.8653 134.699 64.3674 131.836C64.6543 130.186 64.6417 128.425 65.4728 126.977C65.6786 126.581 65.9896 126.25 66.3715 126.019C66.8444 125.814 67.359 125.723 67.8736 125.753C69.4853 125.728 68.3588 123.643 69.9832 123.617C71.0886 123.617 75.3458 123.74 76.2613 124.461C77.1769 125.183 77.3246 128.848 77.7043 129.949C78.7478 132.972 79.7647 136.004 80.7548 139.047C81.3173 140.806 81.8743 142.56 82.4256 144.311Z" fill="#51CF66"/>
<path d="M82.4256 144.311C83.174 146.466 83.7123 148.688 84.0331 150.947C84.1428 151.922 84.147 152.999 83.5648 153.788C82.9825 154.577 81.9362 154.89 80.9573 154.89C79.9792 154.829 79.0065 154.7 78.046 154.506C75.89 154.223 73.6496 154.577 71.5696 153.944C70.8728 153.718 70.1955 153.436 69.5444 153.1L63.9666 150.402C63.7168 150.296 63.4837 150.154 63.2746 149.98C63.0268 149.729 62.8342 149.428 62.7093 149.098C61.4749 146.287 61.1561 143.159 61.7979 140.157C62.4097 137.316 63.8653 134.699 64.3674 131.836C64.6543 130.186 64.6417 128.425 65.4728 126.977C65.6786 126.581 65.9896 126.25 66.3715 126.019C66.8444 125.814 67.359 125.723 67.8736 125.753C69.4853 125.728 68.3588 123.643 69.9832 123.617C71.0886 123.617 75.3458 123.74 76.2613 124.461C77.1769 125.183 77.3246 128.848 77.7043 129.949C78.7478 132.972 79.7647 136.004 80.7548 139.047C81.3173 140.806 81.8743 142.56 82.4256 144.311Z" fill="url(#paint17_linear_966_1025)"/>
<path d="M156.329 65.1456C155.417 65.8168 154.611 66.6949 153.531 67.0453C154.021 68.7085 156.126 69.4177 156.784 71.0176C157.231 72.1068 156.911 73.3352 156.729 74.4961C156.274 77.4174 156.751 80.4062 157.227 83.3063C157.345 84.0282 157.539 84.8598 158.202 85.1722C158.445 85.2689 158.704 85.3218 158.966 85.3284C160.383 85.4297 161.881 85.3284 163.1 84.6192C164.75 83.6356 165.674 81.6051 167.476 80.9465C168.028 80.7439 168.691 80.6468 169.011 80.1529C169.122 79.9237 169.184 79.6741 169.193 79.4199C169.203 79.1656 169.16 78.9121 169.066 78.6754C168.408 76.1425 167.126 73.8629 165.834 71.6087C165.134 70.2989 164.306 69.0617 163.362 67.9149C162.299 66.7659 161.108 65.7419 159.814 64.8628C158.653 64.0185 157.476 64.3013 156.329 65.1456Z" fill="#51CF66"/>
<path d="M156.329 65.1456C155.417 65.8168 154.611 66.6949 153.531 67.0453C154.021 68.7085 156.126 69.4177 156.784 71.0176C157.231 72.1068 156.911 73.3352 156.729 74.4961C156.274 77.4174 156.751 80.4062 157.227 83.3063C157.345 84.0282 157.539 84.8598 158.202 85.1722C158.445 85.2689 158.704 85.3218 158.966 85.3284C160.383 85.4297 161.881 85.3284 163.1 84.6192C164.75 83.6356 165.674 81.6051 167.476 80.9465C168.028 80.7439 168.691 80.6468 169.011 80.1529C169.122 79.9237 169.184 79.6741 169.193 79.4199C169.203 79.1656 169.16 78.9121 169.066 78.6754C168.408 76.1425 167.126 73.8629 165.834 71.6087C165.134 70.2989 164.306 69.0617 163.362 67.9149C162.299 66.7659 161.108 65.7419 159.814 64.8628C158.653 64.0185 157.476 64.3013 156.329 65.1456Z" fill="url(#paint18_linear_966_1025)"/>
<path d="M70.8314 127.669C70.7596 129.755 71.1815 131.819 71.4853 133.883C72.0887 137.948 72.1688 142.406 69.8736 145.813C69.8458 145.886 69.8019 145.951 69.7451 146.005C69.6883 146.058 69.6202 146.098 69.5459 146.121C69.4716 146.144 69.393 146.15 69.316 146.138C69.239 146.127 69.1657 146.098 69.1015 146.054C65.5827 144.655 62.1215 143.1 58.718 141.389C58.3344 141.24 58.0009 140.985 57.7561 140.654C57.5723 140.271 57.502 139.844 57.5535 139.422L57.908 127.526C57.9092 126.767 57.9784 126.01 58.1147 125.263C58.3287 124.265 58.7609 123.326 59.3805 122.515C59.7189 122.017 60.1914 121.624 60.7433 121.383C61.257 121.236 61.7955 121.196 62.3255 121.265C65.9202 121.476 69.4981 121.742 73.1013 122.008C73.5103 122.016 73.9152 122.092 74.2995 122.232C75.291 122.654 75.7087 123.811 76.021 124.841C75.6792 123.722 73.3755 123.887 72.5697 124.132C71.2491 124.537 70.8735 126.475 70.8314 127.669Z" fill="#51CF66"/>
<path d="M72.6084 90.9847C70.6254 93.7624 68.925 96.8019 68.0812 100.141C66.9758 104.468 67.3724 109.031 67.4567 113.506C67.6781 127.347 64.8534 141.068 59.1829 153.694C57.9931 156.32 56.6218 158.98 54.3266 160.715C53.4195 159.706 52.4912 158.701 51.5672 157.692C51.4131 157.544 51.2847 157.372 51.1875 157.181C51.1158 157.069 51.0658 156.945 51.0398 156.814C51.0272 156.398 51.1684 155.992 51.4364 155.674C52.6727 153.825 54.3603 152.297 55.5459 150.423C56.8539 148.337 57.4657 145.893 58.01 143.5C59.3812 137.501 60.3558 131.418 61.3431 125.347C61.8072 122.473 62.2713 119.598 62.5329 116.689C63.0941 110.56 62.7987 104.363 63.7987 98.2963C64.6425 93.0279 66.6382 87.6244 70.5832 83.8547C71.8742 82.6347 73.8699 81.6764 75.2243 82.5671C75.7965 82.9696 76.197 83.5721 76.3466 84.2557C77.1018 86.7042 73.9079 89.199 72.6084 90.9847Z" fill="#51CF66"/>
<path d="M71.7645 89.9764C69.7689 92.7542 68.0643 95.7936 67.2247 99.1159C66.1361 103.46 66.5159 108.023 66.596 112.498C66.8299 126.34 64.0046 140.063 58.3222 152.686C57.1492 155.312 55.7611 157.971 53.4828 159.706C52.7064 158.862 51.9301 158.018 51.1875 157.174C51.1158 157.061 51.0658 156.937 51.0398 156.806C51.0272 156.391 51.1684 155.985 51.4364 155.667C52.6727 153.818 54.3603 152.289 55.5459 150.415C56.8539 148.33 57.4657 145.885 58.01 143.492C59.3812 137.493 60.3558 131.41 61.3431 125.34C61.8072 122.465 62.2713 119.59 62.5329 116.681C63.0941 110.552 62.7987 104.355 63.7987 98.2885C64.6425 93.0201 66.6382 87.6166 70.5832 83.8469C71.8742 82.6269 73.8699 81.6686 75.2243 82.5593C75.328 82.7782 75.4168 83.0039 75.4901 83.2348C76.2411 85.7001 73.0387 88.195 71.7645 89.9764Z" fill="url(#paint19_linear_966_1025)"/>
<path d="M210.702 127.492C209.065 127.492 207.36 127.619 205.867 126.952C204.601 126.395 203.677 125.352 202.681 124.419C198.927 120.937 194.12 118.806 189.019 118.366C185.058 118.032 181.087 118.745 177.109 118.914C169.097 119.254 161.145 117.403 154.105 113.562C154.831 119.066 156.826 124.327 159.933 128.927C163.04 133.527 167.173 137.342 172.008 140.068C174.404 141.394 177.071 142.55 178.585 144.847C181.395 149.148 178.885 155.624 182.15 159.588C183.382 161.082 185.226 161.914 186.711 163.155C190.509 166.351 191.475 171.721 193.698 176.166C197.968 184.693 206.875 189.7 215.275 194.2C218.334 195.842 221.457 197.501 224.874 198.113C228.131 198.696 231.507 198.282 234.696 197.404C247.485 193.896 258.117 180.763 255.311 167.795C253.172 157.916 244.059 150.799 238.177 143.044C231.435 134.137 222.321 127.454 210.702 127.492Z" fill="#51CF66"/>
<path d="M210.702 127.492C209.065 127.492 207.36 127.619 205.867 126.952C204.601 126.395 203.677 125.352 202.681 124.419C198.927 120.937 194.12 118.806 189.019 118.366C185.058 118.032 181.087 118.745 177.109 118.914C169.097 119.254 161.145 117.403 154.105 113.562C154.831 119.066 156.826 124.327 159.933 128.927C163.04 133.527 167.173 137.342 172.008 140.068C174.404 141.394 177.071 142.55 178.585 144.847C181.395 149.148 178.885 155.624 182.15 159.588C183.382 161.082 185.226 161.914 186.711 163.155C190.509 166.351 191.475 171.721 193.698 176.166C197.968 184.693 206.875 189.7 215.275 194.2C218.334 195.842 221.457 197.501 224.874 198.113C228.131 198.696 231.507 198.282 234.696 197.404C247.485 193.896 258.117 180.763 255.311 167.795C253.172 157.916 244.059 150.799 238.177 143.044C231.435 134.137 222.321 127.454 210.702 127.492Z" fill="url(#paint20_linear_966_1025)"/>
<path d="M41.0949 134.525C39.7401 139.731 39.3313 145.137 39.8882 150.487C40.3649 155.067 41.5505 159.681 40.7742 164.223C40.1666 167.778 38.3904 171.011 36.6478 174.169L28.99 188.02C22.927 179.074 13.2693 167.554 17.7121 156.452C19.7626 151.327 23.4291 146.582 27.45 142.85C29.2895 141.149 40.8248 135.564 41.0949 134.525Z" fill="#51CF66"/>
<path d="M41.0949 134.525C39.7401 139.731 39.3313 145.137 39.8882 150.487C40.3649 155.067 41.5505 159.681 40.7742 164.223C40.1666 167.778 38.3904 171.011 36.6478 174.169L28.99 188.02C22.927 179.074 13.2693 167.554 17.7121 156.452C19.7626 151.327 23.4291 146.582 27.45 142.85C29.2895 141.149 40.8248 135.564 41.0949 134.525Z" fill="url(#paint21_linear_966_1025)"/>
<defs>
<linearGradient id="paint0_linear_966_1025" x1="244.143" y1="107.145" x2="197.597" y2="268.729" gradientUnits="userSpaceOnUse">
<stop stop-color="#010101" stop-opacity="0"/>
<stop offset="0.95" stop-color="#010101"/>
</linearGradient>
<linearGradient id="paint1_linear_966_1025" x1="9214.5" y1="23530.8" x2="12578.9" y2="23530.8" gradientUnits="userSpaceOnUse">
<stop stop-color="#010101" stop-opacity="0"/>
<stop offset="0.95" stop-color="#010101"/>
</linearGradient>
<linearGradient id="paint2_linear_966_1025" x1="13692.3" y1="26579.4" x2="17818" y2="26315.2" gradientUnits="userSpaceOnUse">
<stop stop-color="#010101" stop-opacity="0"/>
<stop offset="0.95" stop-color="#010101"/>
</linearGradient>
<linearGradient id="paint3_linear_966_1025" x1="119.352" y1="50.0451" x2="132.638" y2="50.0451" gradientUnits="userSpaceOnUse">
<stop stop-color="#E5C6D6"/>
<stop offset="0.42" stop-color="#EAD4D0"/>
<stop offset="1" stop-color="#F0E9CB"/>
</linearGradient>
<linearGradient id="paint4_linear_966_1025" x1="15956.2" y1="1832.91" x2="13526.1" y2="3818.9" gradientUnits="userSpaceOnUse">
<stop stop-color="#010101" stop-opacity="0"/>
<stop offset="0.95" stop-color="#010101"/>
</linearGradient>
<linearGradient id="paint5_linear_966_1025" x1="11093.4" y1="6909.7" x2="8318.76" y2="6697.07" gradientUnits="userSpaceOnUse">
<stop stop-color="#010101" stop-opacity="0"/>
<stop offset="0.95" stop-color="#010101"/>
</linearGradient>
<linearGradient id="paint6_linear_966_1025" x1="88.21" y1="38.6772" x2="126.238" y2="38.6772" gradientUnits="userSpaceOnUse">
<stop stop-color="white" stop-opacity="0"/>
<stop offset="0.95" stop-color="white"/>
</linearGradient>
<linearGradient id="paint7_linear_966_1025" x1="19758.9" y1="23336.1" x2="1752.31" y2="25129.5" gradientUnits="userSpaceOnUse">
<stop stop-color="#010101" stop-opacity="0"/>
<stop offset="0.95" stop-color="#010101"/>
</linearGradient>
<linearGradient id="paint8_linear_966_1025" x1="20196.1" y1="4748.13" x2="20257.6" y2="9273.08" gradientUnits="userSpaceOnUse">
<stop stop-color="#010101" stop-opacity="0"/>
<stop offset="0.95" stop-color="#010101"/>
</linearGradient>
<linearGradient id="paint9_linear_966_1025" x1="12607.2" y1="7091.1" x2="15362.9" y2="7091.1" gradientUnits="userSpaceOnUse">
<stop stop-color="#E5C6D6"/>
<stop offset="0.42" stop-color="#EAD4D0"/>
<stop offset="1" stop-color="#F0E9CB"/>
</linearGradient>
<linearGradient id="paint10_linear_966_1025" x1="6191.16" y1="3800.71" x2="7446.82" y2="3800.71" gradientUnits="userSpaceOnUse">
<stop stop-color="#010101" stop-opacity="0"/>
<stop offset="0.95" stop-color="#010101"/>
</linearGradient>
<linearGradient id="paint11_linear_966_1025" x1="4568.65" y1="2438.94" x2="5319.15" y2="2438.94" gradientUnits="userSpaceOnUse">
<stop stop-color="#010101" stop-opacity="0"/>
<stop offset="0.95" stop-color="#010101"/>
</linearGradient>
<linearGradient id="paint12_linear_966_1025" x1="18867.7" y1="27965.4" x2="3504.4" y2="30911.8" gradientUnits="userSpaceOnUse">
<stop stop-color="#010101" stop-opacity="0"/>
<stop offset="0.95" stop-color="#010101"/>
</linearGradient>
<linearGradient id="paint13_linear_966_1025" x1="4859.1" y1="27810.2" x2="23000" y2="24153.3" gradientUnits="userSpaceOnUse">
<stop stop-color="#010101" stop-opacity="0"/>
<stop offset="0.95" stop-color="#010101"/>
</linearGradient>
<linearGradient id="paint14_linear_966_1025" x1="6139.01" y1="10243.6" x2="7605.86" y2="10243.6" gradientUnits="userSpaceOnUse">
<stop stop-color="#010101" stop-opacity="0"/>
<stop offset="0.95" stop-color="#010101"/>
</linearGradient>
<linearGradient id="paint15_linear_966_1025" x1="8863.45" y1="10075.4" x2="4924.59" y2="7174.71" gradientUnits="userSpaceOnUse">
<stop stop-color="#010101" stop-opacity="0"/>
<stop offset="0.95" stop-color="#010101"/>
</linearGradient>
<linearGradient id="paint16_linear_966_1025" x1="6261.96" y1="7510.5" x2="7517.73" y2="9489.62" gradientUnits="userSpaceOnUse">
<stop stop-color="#010101" stop-opacity="0"/>
<stop offset="0.95" stop-color="#010101"/>
</linearGradient>
<linearGradient id="paint17_linear_966_1025" x1="5088.51" y1="12081" x2="3522.8" y2="9959.72" gradientUnits="userSpaceOnUse">
<stop stop-color="#010101" stop-opacity="0"/>
<stop offset="0.95" stop-color="#010101"/>
</linearGradient>
<linearGradient id="paint18_linear_966_1025" x1="6508.46" y1="4398.75" x2="7089.89" y2="4398.75" gradientUnits="userSpaceOnUse">
<stop stop-color="white" stop-opacity="0"/>
<stop offset="0.95" stop-color="white"/>
</linearGradient>
<linearGradient id="paint19_linear_966_1025" x1="4169.14" y1="24250.7" x2="6951.37" y2="24377.3" gradientUnits="userSpaceOnUse">
<stop stop-color="#010101" stop-opacity="0"/>
<stop offset="0.95" stop-color="#010101"/>
</linearGradient>
<linearGradient id="paint20_linear_966_1025" x1="54858.9" y1="29896.3" x2="40300.1" y2="66181.4" gradientUnits="userSpaceOnUse">
<stop stop-color="#010101" stop-opacity="0"/>
<stop offset="0.95" stop-color="#010101"/>
</linearGradient>
<linearGradient id="paint21_linear_966_1025" x1="3282.44" y1="19748.2" x2="-8366.05" y2="30424.8" gradientUnits="userSpaceOnUse">
<stop stop-color="#010101" stop-opacity="0"/>
<stop offset="0.95" stop-color="#010101"/>
</linearGradient>
</defs>
</svg>
