<svg width="46" height="46" viewBox="0 0 46 46" fill="none" xmlns="http://www.w3.org/2000/svg">
<path d="M22.8564 36.953C30.4832 36.953 36.6659 30.7703 36.6659 23.1435C36.6659 15.5167 30.4832 9.33398 22.8564 9.33398C15.2296 9.33398 9.04688 15.5167 9.04688 23.1435C9.04688 30.7703 15.2296 36.953 22.8564 36.953Z" stroke="#12B232" stroke-width="1.5" stroke-linecap="round" stroke-linejoin="round"/>
<path d="M27.1437 16.9531H21.6675C19.958 16.9531 18.5723 18.3389 18.5723 20.0484C18.5723 21.7579 19.958 23.1436 21.6675 23.1436H24.0485C25.758 23.1436 27.1437 24.5293 27.1437 26.2388C27.1437 27.9484 25.758 29.3341 24.0485 29.3341H18.5723" stroke="#12B232" stroke-width="1.5" stroke-linecap="round" stroke-linejoin="round"/>
<path d="M22.8574 15.0479V16.0002" stroke="#12B232" stroke-width="1.5" stroke-linecap="round" stroke-linejoin="round"/>
<path d="M22.8574 30.2861V31.2385" stroke="#12B232" stroke-width="1.5" stroke-linecap="round" stroke-linejoin="round"/>
</svg>
