<svg width="40" height="40" viewBox="0 0 40 40" fill="none" xmlns="http://www.w3.org/2000/svg">
<path d="M21.6673 19.9997C21.6673 20.9202 20.9211 21.6663 20.0007 21.6663C19.0802 21.6663 18.334 20.9202 18.334 19.9997C18.334 19.0792 19.0802 18.333 20.0007 18.333C20.9211 18.333 21.6673 19.0792 21.6673 19.9997Z" fill="white"/>
<path d="M21.6673 13.3337C21.6673 14.2541 20.9211 15.0003 20.0007 15.0003C19.0802 15.0003 18.334 14.2541 18.334 13.3337C18.334 12.4132 19.0802 11.667 20.0007 11.667C20.9211 11.667 21.6673 12.4132 21.6673 13.3337Z" fill="white"/>
<path d="M21.6673 26.6667C21.6673 27.5872 20.9211 28.3333 20.0007 28.3333C19.0802 28.3333 18.334 27.5872 18.334 26.6667C18.334 25.7462 19.0802 25 20.0007 25C20.9211 25 21.6673 25.7462 21.6673 26.6667Z" fill="white"/>
</svg>
