<svg width="40" height="40" viewBox="0 0 40 40" fill="none" xmlns="http://www.w3.org/2000/svg">
<path d="M32.0827 11.2497C32.0827 10.3292 31.3365 9.58301 30.416 9.58301H9.58268C8.66222 9.58301 7.91602 10.3292 7.91602 11.2497V13.4091C7.91602 14.182 8.46327 14.8299 9.14983 15.1848C10.8919 16.0853 12.0827 17.9033 12.0827 19.9997C12.0827 22.096 10.8919 23.914 9.14983 24.8145C8.46327 25.1695 7.91602 25.8173 7.91602 26.5902V28.7497C7.91602 29.6702 8.6622 30.4163 9.58268 30.4163H30.416C31.3365 30.4163 32.0827 29.6702 32.0827 28.7497V26.5902C32.0827 25.8173 31.5353 25.1695 30.8488 24.8145C29.1068 23.914 27.916 22.096 27.916 19.9997C27.916 17.9033 29.1068 16.0853 30.8488 15.1848C31.5353 14.8299 32.0827 14.182 32.0827 13.4091V11.2497Z" stroke="#12B232" stroke-width="1.5" stroke-linecap="round" stroke-linejoin="round"/>
</svg>
