<svg width="34" height="34" viewBox="0 0 34 34" fill="none" xmlns="http://www.w3.org/2000/svg">
<path d="M12.3952 6.72949H21.6035C24.7331 6.72949 27.2702 9.26654 27.2702 12.3962V21.6045C27.2702 24.734 24.7331 27.2712 21.6035 27.2712H12.3952C9.26557 27.2712 6.72852 24.734 6.72852 21.6045V12.3962C6.72852 9.26654 9.26557 6.72949 12.3952 6.72949Z" stroke="#495057" stroke-width="1.5" stroke-linecap="round" stroke-linejoin="round"/>
<path d="M10.9785 18.0625C10.9785 18.0625 12.7493 21.6042 16.9993 21.6042C21.2493 21.6042 23.0202 18.0625 23.0202 18.0625" stroke="#495057" stroke-width="1.5" stroke-linecap="round" stroke-linejoin="round"/>
<path d="M19.8327 15.5833C20.6151 15.5833 21.2493 14.9491 21.2493 14.1667C21.2493 13.3843 20.6151 12.75 19.8327 12.75C19.0503 12.75 18.416 13.3843 18.416 14.1667C18.416 14.9491 19.0503 15.5833 19.8327 15.5833Z" fill="#495057"/>
<path d="M14.1667 15.5833C14.9491 15.5833 15.5833 14.9491 15.5833 14.1667C15.5833 13.3843 14.9491 12.75 14.1667 12.75C13.3843 12.75 12.75 13.3843 12.75 14.1667C12.75 14.9491 13.3843 15.5833 14.1667 15.5833Z" fill="#495057"/>
</svg>
